<svg xmlns="http://www.w3.org/2000/svg" xmlns:xlink="http://www.w3.org/1999/xlink" width="53" height="53" viewBox="6 -10 50 70"><defs><filter id="a" x="1.506" y="0" width="49.988" height="52.988" filterUnits="userSpaceOnUse"><feOffset dy="3" input="SourceAlpha"/><feGaussianBlur result="b"/><feFlood/><feComposite operator="in" in2="b"/><feComposite in="SourceGraphic"/></filter><clipPath id="d"><rect width="53" height="53"/></clipPath></defs><g id="c" clip-path="url(#d)"><rect width="53" height="53" fill="rgba(255,255,255,0)"/><g transform="translate(1.506 0)"><g transform="matrix(1, 0, 0, 1, -1.51, 0)" filter="url(#a)"><path d="M0,28.528s4.356,3.36,9.725,7.728,7.648,6.408,7.648,6.408a14.77,14.77,0,0,0,3.317,4.743,9.123,9.123,0,0,0,4.3,2.582s1.887-.065,4.207-2.328a14.826,14.826,0,0,0,3.3-5L49.988,28.528a25.2,25.2,0,0,1-4.543-4.571,16.474,16.474,0,0,1-2.855-4.938,19.058,19.058,0,0,0,1.5-10.2A15.2,15.2,0,0,0,40.237,0L33.625,8.867a19.407,19.407,0,0,0-8.631-1.78,20.222,20.222,0,0,0-8.741,1.78L9.751,0A15.766,15.766,0,0,0,5.828,8.867,18.871,18.871,0,0,0,7.173,19.019a12.226,12.226,0,0,1-2.509,5A20.4,20.4,0,0,1,0,28.528Z" transform="translate(1.51 0)" fill="#fff" fill-rule="evenodd"/></g><path d="M3.5,14.851s5.222,3.686,9.735,7.414,4.871,4.65,4.871,4.65a15.265,15.265,0,0,0,.3-6.583,10.826,10.826,0,0,0-2.316-5.481s-1.21-1.782-5.1-1.782A19.17,19.17,0,0,0,3.5,14.851Z" transform="translate(3.627 14.388)" fill-rule="evenodd"/><path d="M30.393,14.862s-5.222,3.686-9.735,7.414-4.871,4.65-4.871,4.65a15.265,15.265,0,0,1-.3-6.583,10.826,10.826,0,0,1,2.316-5.481s1.21-1.782,5.1-1.782a19.17,19.17,0,0,1,7.488,1.782Z" transform="translate(12.866 14.401)" fill-rule="evenodd"/></g></g></svg>