<svg xmlns="http://www.w3.org/2000/svg" xmlns:xlink="http://www.w3.org/1999/xlink" width="479" height="161" viewBox="0 0 479 161">
  <defs>
    <clipPath id="clip-Custom_Size_1">
      <rect width="479" height="161"/>
    </clipPath>
  </defs>
  <g id="Custom_Size_1" data-name="Custom Size – 1" clip-path="url(#clip-Custom_Size_1)">
    <rect width="479" height="161" fill="#b400ff"/>
    <g id="work-4166473" transform="translate(58.991 -83.382)">
      <g id="Group_1" data-name="Group 1" transform="translate(262.383 189.031)">
        <path id="Path_1" data-name="Path 1" d="M374.656,321.9a18.557,18.557,0,1,0,0-26.244A18.567,18.567,0,0,0,374.656,321.9Z" transform="translate(-369.225 -290.225)" fill="#fff"/>
        <path id="Path_2" data-name="Path 2" d="M380.785,321.468a13.918,13.918,0,1,0,0-19.683A13.9,13.9,0,0,0,380.785,321.468Z" transform="translate(-372.073 -293.073)" fill="#1e4c4c"/>
        <path id="Path_3" data-name="Path 3" d="M370.371,341.919l3.219-3.219,3.466,3.466-3.219,3.219a2.5,2.5,0,0,1-3.466,0h0A2.5,2.5,0,0,1,370.371,341.919Z" transform="translate(-369.397 -308.696)" fill="#fff"/>
        <path id="Path_4" data-name="Path 4" d="M400.468,323.45c.309-.309.557-.619.867-.928A13.934,13.934,0,0,1,381.714,302.9a11.89,11.89,0,0,0-.928.867,13.918,13.918,0,0,0,19.683,19.683Z" transform="translate(-372.073 -295.055)" fill="#1a7c7b"/>
      </g>
      <g id="Group_3" data-name="Group 3" transform="translate(92.734 228.662)">
        <path id="Path_5" data-name="Path 5" d="M245.552,358.457l-.124-2.909a.266.266,0,0,0-.248-.248l-3.281.124.124,3.342,3.281-.124C245.49,358.7,245.614,358.581,245.552,358.457Z" transform="translate(-173.071 -353.801)" fill="#fff"/>
        <path id="Path_6" data-name="Path 6" d="M219.714,354.377l.124,3.466a1.684,1.684,0,0,1-1.547,1.671l-36.643,1.238-.248-6.623,36.643-1.238A1.546,1.546,0,0,1,219.714,354.377Z" transform="translate(-150.019 -352.878)" fill="#1e4c4c"/>
        <rect id="Rectangle_2" data-name="Rectangle 2" width="6.623" height="0.805" transform="translate(30.949 7.824) rotate(-91.939)" fill="#e8d4b0"/>
        <rect id="Rectangle_3" data-name="Rectangle 3" width="2.166" height="18.816" transform="translate(47.965 5.06) rotate(-91.945)" fill="#fff"/>
        <g id="Group_2" data-name="Group 2" transform="translate(0 1.066)">
          <path id="Path_7" data-name="Path 7" d="M130.7,360.338l.062.928,5.447.743h.248l-.124-2.909Z" transform="translate(-130.7 -356.315)" fill="#fff"/>
          <path id="Path_8" data-name="Path 8" d="M160.188,354.91a123.7,123.7,0,0,0-20.364,2.476H139.7l.124,2.909a125.967,125.967,0,0,0,20.55,1.114l6.128-.186-.248-6.623Z" transform="translate(-134.129 -354.6)" fill="#1a7c7b"/>
        </g>
      </g>
      <rect id="Rectangle_4" data-name="Rectangle 4" width="95.939" height="120.636" transform="translate(112.318 91.182) rotate(7.134)" fill="#fff"/>
      <g id="Group_4" data-name="Group 4" transform="translate(122.544 107.369)">
        <path id="Path_9" data-name="Path 9" d="M236.583,198.1l-51.436-6.809a1.626,1.626,0,0,0-1.857,1.424h0a1.626,1.626,0,0,0,1.424,1.857l51.436,6.809a1.626,1.626,0,0,0,1.857-1.424h0A1.626,1.626,0,0,0,236.583,198.1Z" transform="translate(-177.503 -174.192)" fill="#dfe1e1"/>
        <path id="Path_10" data-name="Path 10" d="M239.363,169.447,196.1,163.691a1.556,1.556,0,0,0-1.609,1.486h0a1.55,1.55,0,0,0,1.176,1.857l43.265,5.756a1.556,1.556,0,0,0,1.609-1.486h0A1.55,1.55,0,0,0,239.363,169.447Z" transform="translate(-181.769 -163.676)" fill="#b6bfc0"/>
        <path id="Path_11" data-name="Path 11" d="M232.383,230.1l-51.436-6.809a1.626,1.626,0,0,0-1.857,1.424h0a1.626,1.626,0,0,0,1.424,1.857l51.436,6.809a1.626,1.626,0,0,0,1.857-1.424h0A1.706,1.706,0,0,0,232.383,230.1Z" transform="translate(-175.903 -186.386)" fill="#dfe1e1"/>
        <path id="Path_12" data-name="Path 12" d="M194.041,207.414l-10.894-1.424a1.626,1.626,0,0,0-1.857,1.424h0a1.626,1.626,0,0,0,1.424,1.857l10.894,1.424a1.626,1.626,0,0,0,1.857-1.424h0A1.659,1.659,0,0,0,194.041,207.414Z" transform="translate(-176.741 -179.794)" fill="#dfe1e1"/>
        <path id="Path_13" data-name="Path 13" d="M214.09,211.814h0a1.626,1.626,0,0,0,1.424,1.857l10.894,1.424a1.626,1.626,0,0,0,1.857-1.424h0a1.626,1.626,0,0,0-1.424-1.857l-10.894-1.424A1.626,1.626,0,0,0,214.09,211.814Z" transform="translate(-189.239 -181.47)" fill="#dfe1e1"/>
        <path id="Path_14" data-name="Path 14" d="M180.232,256.22h-.309a1.581,1.581,0,0,1-1.238-1.424s-.124-1.424-.186-3.219a11.7,11.7,0,0,1-1.919,3.528,1.551,1.551,0,0,1-2.166,0,1.5,1.5,0,0,1,0-2.166c.5-.5,1.547-3.342,2.166-4.828,1.362-3.528,1.795-4.58,3.28-4.333.433.062,1.362.371,1.424,1.857.062.99.124,2.538.248,4.023a1.725,1.725,0,0,1,1.114.062l3.466,1.671c1.424-.743,4.333-1.981,6.375-.867l.928.557a5.59,5.59,0,0,0,3.281,1.052,1.538,1.538,0,0,1,1.424,1.671,1.574,1.574,0,0,1-1.671,1.424,8.544,8.544,0,0,1-4.58-1.485l-.867-.5c-.619-.371-2.662.371-4.023,1.238a1.422,1.422,0,0,1-1.486.062l-2.785-1.362-1.052,2.166A1.7,1.7,0,0,1,180.232,256.22Z" transform="translate(-173.95 -194.185)" fill="#b6bfc0"/>
      </g>
      <path id="paper_clip_9_" d="M109.977,333.587l-.062.124a3.648,3.648,0,0,1-4.952,1.424l-7.551-4.147a.415.415,0,1,1,.371-.743l7.551,4.147a2.838,2.838,0,0,0,3.838-1.114l.062-.124a2.838,2.838,0,0,0-1.114-3.838l-9.9-5.447a2.085,2.085,0,0,0-2.847.867,2.117,2.117,0,0,0,.8,2.847l7.737,4.209a1.124,1.124,0,0,0,1.547-.433l.062-.124a1.124,1.124,0,0,0-.433-1.547l-5.076-2.785a.415.415,0,1,1,.371-.743l5.075,2.785a2.011,2.011,0,0,1,.8,2.662l-.062.124a2.011,2.011,0,0,1-2.662.8l-7.675-4.209a2.922,2.922,0,0,1,2.785-5.137l9.9,5.447A3.687,3.687,0,0,1,109.977,333.587Z" transform="translate(-28.862 -113.449)" fill="#1e4c4c"/>
      <g id="Group_8" data-name="Group 8" transform="translate(61.528 107.717)">
        <path id="Path_15" data-name="Path 15" d="M98.595,238.51l-.557-66.91H95.5l.557,66.972Z" transform="translate(-91.042 -166.71)" fill="#916d4d"/>
        <path id="Path_16" data-name="Path 16" d="M99.162,265.416s3.528,6.5,6,6.437c3.281-.124,2.166-1.609,2.166-1.609s-5.942-5.88-7.489-7.985c-.309-.433-.743,1.424-.743,1.424l.062,1.733Z" transform="translate(-92.413 -201.23)" fill="#916d4d"/>
        <path id="Path_17" data-name="Path 17" d="M98.5,178.9s3.4-6.561,5.942-6.5c3.28.062,2.228,1.547,2.228,1.547s-5.88,6-7.366,8.108c-.309.433-.743-1.424-.743-1.424L98.5,178.9Z" transform="translate(-92.185 -167.015)" fill="#916d4d"/>
        <g id="Group_5" data-name="Group 5">
          <path id="Path_18" data-name="Path 18" d="M89.846,163.762l4.147-.062c1.114,3.466,8.913,3.59,8.913,3.59s10.77,1.547,10.894,14.236c.124,14.793-13.617,16.96-15.907,17.517a2.792,2.792,0,0,0-2.166,2.723,2.75,2.75,0,0,0,2.166,2.723c2.29.5,16.093,2.476,16.217,17.207.124,12.194-10.708,13.679-10.708,13.679s-7.737,1.052-8.789,4.518l-4.147.062s-1.671-3.342-1.733-13a69.759,69.759,0,0,1,1.3-15.288,81.122,81.122,0,0,0,1.424-9.841,84.8,84.8,0,0,0-1.609-9.78A67.664,67.664,0,0,1,88.3,176.76c-.062-9.656,1.547-13,1.547-13ZM90.9,215.94a32.926,32.926,0,0,0,.186,11.76c1.238,7.056,6,6.623,9.1,6s12.379-1.362,11.946-13.184c-.309-4.395-3.342-11.389-12.441-13.493-7.428-1.671-8.789,8.913-8.789,8.913Zm8.665-19.807c9.1-2.228,11.946-9.284,12.255-13.679.248-11.822-9.037-12.379-12.132-12.936s-7.861-.867-8.975,6.19a33.314,33.314,0,0,0,0,11.76s1.486,10.522,8.851,8.665Z" transform="translate(-88.297 -163.7)" fill="#1e4c4c"/>
        </g>
        <path id="Path_19" data-name="Path 19" d="M96.1,236.752l.186,22.716a5.128,5.128,0,0,0,2.538,1.362l-.062-4.7a9.76,9.76,0,0,1-.743-1.3v-1.795s.433-1.857.743-1.424L98.638,234.4a7.145,7.145,0,0,0-2.538,2.352Z" transform="translate(-91.27 -190.639)" fill="#a1a7a7"/>
        <path id="Path_20" data-name="Path 20" d="M99.2,263.71v1.795s.309.5.743,1.3a16.419,16.419,0,0,0,3.9,4.642,1.363,1.363,0,0,1,.5-.062,25.463,25.463,0,0,0,3.219-.681,1.829,1.829,0,0,0-.186-.371s-5.942-5.88-7.489-7.985h0c-.248-.5-.681,1.362-.681,1.362Z" transform="translate(-92.452 -201.257)" fill="#a1a7a7"/>
        <path id="Path_21" data-name="Path 21" d="M91.9,247.86a37.88,37.88,0,0,0,.619,6.437c.928,5.261,3.776,6.375,6.5,6.313a8.251,8.251,0,0,1-1.733-.186,4.883,4.883,0,0,1-2.538-1.362,8.79,8.79,0,0,1-2.228-4.828,31.079,31.079,0,0,1-.619-6.375,27.468,27.468,0,0,1,.433-5.323,16.641,16.641,0,0,1,2.166-6.128,6.191,6.191,0,0,1,2.538-2.352,4.967,4.967,0,0,1,2.414-.557c-6,.062-7.118,9.1-7.118,9.1a22.128,22.128,0,0,0-.433,5.261Z" transform="translate(-89.667 -190.297)" fill="#94736a"/>
        <g id="Group_6" data-name="Group 6" transform="translate(1.859 5.447)">
          <path id="Path_22" data-name="Path 22" d="M96.561,182.156l.124,17.021a4.967,4.967,0,0,0,2.414.557,7.562,7.562,0,0,0,1.609-.186c9.1-2.228,11.946-9.284,12.255-13.679h0v-.681h0c-.062-8.294-5.075-10.708-8.851-11.7v.062a1.033,1.033,0,0,1-.186.557s-5.88,5.88-7.366,8.046Zm-.062-9.408.062,4.89c.928-1.547,2.538-3.961,4.085-4.89a14.464,14.464,0,0,0-2.414-.248,14.593,14.593,0,0,0-1.733.248Zm-5.2,12.689h0a24.155,24.155,0,0,0,.5,5.323h0a16.28,16.28,0,0,0,2.29,6.066L93.9,174.109a8.366,8.366,0,0,0-2.1,4.828h0V179a44.052,44.052,0,0,0-.5,6.437Z" transform="translate(-91.3 -172.5)" fill="#eff0f0"/>
        </g>
        <path id="Path_23" data-name="Path 23" d="M95.6,174.362l.186,22.716a7.105,7.105,0,0,0,2.538,2.352L98.2,182.408c-.309.433-.743-1.424-.743-1.424V179.19s.309-.557.743-1.3L98.138,173a4.883,4.883,0,0,0-2.538,1.362Z" transform="translate(-91.08 -167.244)" fill="#c5c9c9"/>
        <path id="Path_24" data-name="Path 24" d="M98.5,179.09v1.8s.433,1.857.743,1.424h0c1.486-2.166,7.366-8.108,7.366-8.108a1.033,1.033,0,0,0,.186-.557v-.062c-1.3-.309-2.476-.5-3.28-.619a.468.468,0,0,1-.248-.062c-1.547.928-3.157,3.342-4.085,4.89a12.87,12.87,0,0,1-.681,1.3Z" transform="translate(-92.185 -167.206)" fill="#c5c9c9"/>
        <path id="Path_25" data-name="Path 25" d="M112.964,185.165Zm0,.681v0ZM91.8,179.037h0a8.366,8.366,0,0,1,2.1-4.828,5.5,5.5,0,0,1,2.538-1.424,7.684,7.684,0,0,1,1.671-.186c-2.6,0-5.447,1.176-6.313,6.437Zm.062,11.76h0s1.238,8.975,7.242,8.975a5.14,5.14,0,0,1-2.414-.557,6.191,6.191,0,0,1-2.538-2.352,16.28,16.28,0,0,1-2.29-6.066Zm-.557-5.323a41.355,41.355,0,0,1,.5-6.313,41.355,41.355,0,0,0-.5,6.313Zm0,0Z" transform="translate(-89.441 -167.091)" fill="#94736a"/>
        <path id="Path_26" data-name="Path 26" d="M107,199.006l-7.3-16.279L107.189,174s8.356,1.857,8.727,10.77C116.412,193.621,110.718,195.292,107,199.006Z" transform="translate(-92.642 -167.625)" fill="#e2e4e4"/>
        <path id="Path_27" data-name="Path 27" d="M91.8,165.7c.248,0,.5.433.5.99s-.248.99-.5.99-.5-.433-.5-.99S91.548,165.7,91.8,165.7Z" transform="translate(-89.441 -164.462)" fill="#fea511"/>
        <path id="Path_28" data-name="Path 28" d="M91.7,278.2c.248,0,.5.433.5.99s-.248.99-.5.99-.5-.433-.5-.99S91.448,278.2,91.7,278.2Z" transform="translate(-89.403 -207.329)" fill="#fea511"/>
        <g id="Group_7" data-name="Group 7" transform="translate(2.168 43.204)">
          <path id="Path_29" data-name="Path 29" d="M92.233,244.328a27.469,27.469,0,0,0-.433,5.323,37.882,37.882,0,0,0,.619,6.437,8.79,8.79,0,0,0,2.228,4.828L94.462,238.2A16.078,16.078,0,0,0,92.233,244.328Z" transform="translate(-91.8 -235.291)" fill="#c8cbcb"/>
          <path id="Path_30" data-name="Path 30" d="M100.5,269.5l.062,4.7a7.831,7.831,0,0,0,1.733.186,20.5,20.5,0,0,0,2.1-.186A17.573,17.573,0,0,1,100.5,269.5Z" transform="translate(-95.115 -247.217)" fill="#c8cbcb"/>
          <path id="Path_31" data-name="Path 31" d="M118.6,260.483c2.723-1.609,5.137-4.58,5.075-10.4V249.4a14.8,14.8,0,0,0-5.075-9.9Z" transform="translate(-102.012 -235.786)" fill="#eff0f0"/>
          <path id="Path_32" data-name="Path 32" d="M104.223,233.686a7.56,7.56,0,0,0-1.609-.186,6.017,6.017,0,0,0-2.414.557l.124,17.207h0c1.547,2.1,7.489,7.985,7.489,7.985a.843.843,0,0,1,.186.371,14.454,14.454,0,0,0,3.59-1.424V237.276A17.111,17.111,0,0,0,104.223,233.686Z" transform="translate(-95.001 -233.5)" fill="#eff0f0"/>
        </g>
      </g>
      <g id="Group_9" data-name="Group 9" transform="translate(203.268 162.864)">
        <path id="Path_33" data-name="Path 33" d="M329.72,269.076a8.3,8.3,0,0,0-5.385,1.919,8.045,8.045,0,0,1-4.209,1.8,46.958,46.958,0,0,1-5.571.309h-2.414a7.188,7.188,0,0,1-7.118-6.5l-.062,10.77-.062,10.77a7.082,7.082,0,0,1,7.118-6.437h2.352a44.731,44.731,0,0,1,5.447.309,7.845,7.845,0,0,1,4.271,1.857,8.3,8.3,0,0,0,6.623,1.981,8.408,8.408,0,0,0,7.242-7.3,6.728,6.728,0,0,0,.062-1.114A8.348,8.348,0,0,0,329.72,269.076Z" transform="translate(-296.544 -256.14)" fill="#aed4a1"/>
        <path id="Path_34" data-name="Path 34" d="M299.508,250.319h.433V249.7h-8.294v1.362h1.424v39.614H291.4v1.362l8.356.062v-.743h-.5l.124-20.488Z" transform="translate(-291.4 -249.7)" fill="#cce4c4"/>
        <path id="Path_35" data-name="Path 35" d="M291.648,251.9H291.4v19.807h.124Z" transform="translate(-291.4 -250.538)" fill="#4d5357"/>
        <path id="Path_36" data-name="Path 36" d="M291.4,283.9v19.807h0l.124-19.807Z" transform="translate(-291.4 -262.732)" fill="#4d5357"/>
        <path id="Path_37" data-name="Path 37" d="M293.147,271.707V251.9h-1.424l-.124,19.807Z" transform="translate(-291.476 -250.538)" fill="#1e4c4c"/>
        <path id="Path_38" data-name="Path 38" d="M293.071,283.9h-1.547l-.124,19.807h1.671Z" transform="translate(-291.4 -262.732)" fill="#1e4c4c"/>
        <path id="Path_39" data-name="Path 39" d="M305.162,260.48l.062-9.78h-.062l-.062,9.1C305.1,260.046,305.162,260.232,305.162,260.48Z" transform="translate(-296.62 -250.081)" fill="#fff"/>
        <path id="Path_40" data-name="Path 40" d="M304.9,311.018h0l.062-9.718c0,.248-.062.433-.062.681Z" transform="translate(-296.544 -269.362)" fill="#fff"/>
        <path id="Path_41" data-name="Path 41" d="M304.224,283.9l-.124,20.488h.5l.062-9.037a2.534,2.534,0,0,1,.062-.681l.062-10.77Z" transform="translate(-296.239 -262.732)" fill="#cce4c4"/>
        <path id="Path_42" data-name="Path 42" d="M304.3,271.25h.5l.062-10.77a2.507,2.507,0,0,1,0-.681l.062-9.1h-.5Z" transform="translate(-296.315 -250.081)" fill="#cce4c4"/>
      </g>
    </g>
  </g>
</svg>
