<svg xmlns="http://www.w3.org/2000/svg" xmlns:xlink="http://www.w3.org/1999/xlink" width="479" height="161" viewBox="0 0 479 161"><defs><clipPath id="b"><rect width="479" height="161"/></clipPath></defs><g id="a" clip-path="url(#b)"><rect width="479" height="161" fill="#ff7551"/><g transform="translate(57.222 23.789) rotate(-11)"><rect width="256.817" height="280.251" transform="translate(174)" fill="#fff"/><g transform="translate(197.233 20.329)"><g fill="none" stroke="#579bcd" stroke-width="2"><rect width="23.233" height="23.233" stroke="none"/><rect x="1" y="1" width="21.233" height="21.233" fill="none"/></g><path d="M10.582,87.875.456,77.75a1.558,1.558,0,0,1,0-2.2l2.2-2.2a1.558,1.558,0,0,1,2.2,0l6.821,6.821,14.61-14.61a1.558,1.558,0,0,1,2.2,0l2.2,2.2a1.558,1.558,0,0,1,0,2.2L12.785,87.875a1.558,1.558,0,0,1-2.2,0Z" transform="translate(7.655 -65.098)" fill="#fc0203"/><line x2="156.824" transform="translate(55.704 19.603)" fill="none" stroke="#30aabc" stroke-width="4"/></g><g transform="translate(197.233 60.987)"><g fill="none" stroke="#579bcd" stroke-width="2"><rect width="23.233" height="23.233" stroke="none"/><rect x="1" y="1" width="21.233" height="21.233" fill="none"/></g><path d="M10.582,87.875.456,77.75a1.558,1.558,0,0,1,0-2.2l2.2-2.2a1.558,1.558,0,0,1,2.2,0l6.821,6.821,14.61-14.61a1.558,1.558,0,0,1,2.2,0l2.2,2.2a1.558,1.558,0,0,1,0,2.2L12.785,87.875a1.558,1.558,0,0,1-2.2,0Z" transform="translate(7.655 -65.098)" fill="#fc0203"/><line x2="107.454" transform="translate(47.193 19.603)" fill="none" stroke="#30aabc" stroke-width="4"/></g><g transform="translate(197.233 101.645)"><g transform="translate(0 0)" fill="none" stroke="#579bcd" stroke-width="2"><rect width="23.233" height="23.233" stroke="none"/><rect x="1" y="1" width="21.233" height="21.233" fill="none"/></g><path d="M10.582,87.875.456,77.75a1.558,1.558,0,0,1,0-2.2l2.2-2.2a1.558,1.558,0,0,1,2.2,0l6.821,6.821,14.61-14.61a1.558,1.558,0,0,1,2.2,0l2.2,2.2a1.558,1.558,0,0,1,0,2.2L12.785,87.875a1.558,1.558,0,0,1-2.2,0Z" transform="translate(7.655 -65.098)" fill="#fc0203"/><line x2="143.756" transform="translate(55.704 19.603)" fill="none" stroke="#30aabc" stroke-width="4"/></g><g transform="translate(197.233 142.304)"><g transform="translate(0 0)" fill="none" stroke="#579bcd" stroke-width="2"><rect width="23.233" height="23.233" stroke="none"/><rect x="1" y="1" width="21.233" height="21.233" fill="none"/></g><path d="M0,0H83.248" transform="translate(47.193 19.603)" fill="none" stroke="#30aabc" stroke-width="4"/></g><g transform="translate(197.233 182.962)"><g transform="translate(0 0)" fill="none" stroke="#579bcd" stroke-width="2"><rect width="23.233" height="23.233" stroke="none"/><rect x="1" y="1" width="21.233" height="21.233" fill="none"/></g><line x2="155.372" transform="translate(55.704 19.603)" fill="none" stroke="#30aabc" stroke-width="4"/></g><g transform="translate(197.233 223.62)"><g transform="translate(0 0)" fill="none" stroke="#579bcd" stroke-width="2"><rect width="23.233" height="23.233" stroke="none"/><rect x="1" y="1" width="21.233" height="21.233" fill="none"/></g><line x2="62.439" transform="translate(47.193 19.603)" fill="none" stroke="#30aabc" stroke-width="4"/></g></g></g></svg>