<svg xmlns="http://www.w3.org/2000/svg" xmlns:xlink="http://www.w3.org/1999/xlink" width="479" height="161" viewBox="0 0 479 161"><defs><linearGradient id="a" x1="0.259" y1="-0.541" x2="0.595" y2="-0.131" gradientUnits="objectBoundingBox"><stop offset="0" stop-color="#fff"/><stop offset="1" stop-color="#f9f9f9"/></linearGradient><clipPath id="c"><rect width="479" height="161"/></clipPath></defs><g id="b" clip-path="url(#c)"><rect width="479" height="161" fill="#47cf73"/><g transform="translate(101.007 -22.44)"><path d="M0,0,251.613,3.735,6.674,163.529,0,0Z" transform="translate(-0.007 63.995) rotate(-12.978)" fill="rgba(0,0,0,0.18)"/><g transform="translate(1.613 59.42) rotate(-12.978)"><path d="M0,0H262.338V187.858H0Z" transform="translate(0.141 0)" stroke="#707070" stroke-linejoin="round" stroke-width="1" fill="url(#a)"/><path d="M0,0H262.624" transform="translate(0 11.216)" fill="none" stroke="#7eacd0" stroke-linejoin="round" stroke-width="1"/><path d="M0,0H262.624" transform="translate(0 22.267)" fill="none" stroke="#7eacd0" stroke-linejoin="round" stroke-width="1"/><path d="M0,0H262.624" transform="translate(0 11.216)" fill="none" stroke="#7eacd0" stroke-linejoin="round" stroke-width="1"/><path d="M0,0H262.624" transform="translate(0 22.267)" fill="none" stroke="#7eacd0" stroke-linejoin="round" stroke-width="1"/><path d="M0,0H262.624" transform="translate(0 33.317)" fill="none" stroke="#7eacd0" stroke-linejoin="round" stroke-width="1"/><path d="M0,0H262.624" transform="translate(0 44.368)" fill="none" stroke="#7eacd0" stroke-linejoin="round" stroke-width="1"/><path d="M0,0H262.624" transform="translate(0 33.317)" fill="none" stroke="#7eacd0" stroke-linejoin="round" stroke-width="1"/><path d="M0,0H262.624" transform="translate(0 44.368)" fill="none" stroke="#7eacd0" stroke-linejoin="round" stroke-width="1"/><path d="M0,0H262.624" transform="translate(0 55.418)" fill="none" stroke="#7eacd0" stroke-linejoin="round" stroke-width="1"/><path d="M0,0H262.624" transform="translate(0 66.469)" fill="none" stroke="#7eacd0" stroke-linejoin="round" stroke-width="1"/><path d="M0,0H262.624" transform="translate(0 55.418)" fill="none" stroke="#7eacd0" stroke-linejoin="round" stroke-width="1"/><path d="M0,0H262.624" transform="translate(0 66.469)" fill="none" stroke="#7eacd0" stroke-linejoin="round" stroke-width="1"/><path d="M0,0H262.624" transform="translate(0 77.519)" fill="none" stroke="#7eacd0" stroke-linejoin="round" stroke-width="1"/><path d="M0,0H262.624" transform="translate(0 88.569)" fill="none" stroke="#7eacd0" stroke-linejoin="round" stroke-width="1"/><path d="M0,0H262.624" transform="translate(0 77.519)" fill="none" stroke="#7eacd0" stroke-linejoin="round" stroke-width="1"/><path d="M0,0H262.624" transform="translate(0 88.569)" fill="none" stroke="#7eacd0" stroke-linejoin="round" stroke-width="1"/><path d="M0,0H262.624" transform="translate(0 99.62)" fill="none" stroke="#7eacd0" stroke-linejoin="round" stroke-width="1"/><path d="M0,0H262.624" transform="translate(0 110.67)" fill="none" stroke="#7eacd0" stroke-linejoin="round" stroke-width="1"/><path d="M0,0H262.624" transform="translate(0 99.62)" fill="none" stroke="#7eacd0" stroke-linejoin="round" stroke-width="1"/><path d="M0,0H262.624" transform="translate(0 110.67)" fill="none" stroke="#7eacd0" stroke-linejoin="round" stroke-width="1"/><path d="M0,0H262.624" transform="translate(0 121.721)" fill="none" stroke="#7eacd0" stroke-linejoin="round" stroke-width="1"/><path d="M0,0H262.624" transform="translate(0 132.771)" fill="none" stroke="#7eacd0" stroke-linejoin="round" stroke-width="1"/><path d="M0,0H262.624" transform="translate(0 121.721)" fill="none" stroke="#7eacd0" stroke-linejoin="round" stroke-width="1"/><path d="M0,0H262.624" transform="translate(0 132.771)" fill="none" stroke="#7eacd0" stroke-linejoin="round" stroke-width="1"/><path d="M0,0H262.624" transform="translate(0 143.822)" fill="none" stroke="#7eacd0" stroke-linejoin="round" stroke-width="1"/><path d="M0,0H262.624" transform="translate(0 154.872)" fill="none" stroke="#7eacd0" stroke-linejoin="round" stroke-width="1"/><path d="M0,0H262.624" transform="translate(0 143.822)" fill="none" stroke="#7eacd0" stroke-linejoin="round" stroke-width="1"/><path d="M0,0H262.624" transform="translate(0 154.872)" fill="none" stroke="#7eacd0" stroke-linejoin="round" stroke-width="1"/><path d="M0,0V187.094" transform="translate(28.766 0.347)" fill="none" stroke="#f17a76" stroke-linejoin="round" stroke-width="1"/><path d="M0,0H262.624" transform="translate(0 165.923)" fill="none" stroke="#7eacd0" stroke-linejoin="round" stroke-width="1"/><path d="M0,0H262.624" transform="translate(0 176.973)" fill="none" stroke="#7eacd0" stroke-linejoin="round" stroke-width="1"/></g></g></g></svg>