<svg xmlns="http://www.w3.org/2000/svg" xmlns:xlink="http://www.w3.org/1999/xlink" width="23.89" height="26.89" viewBox="0 0 23.89 26.89"><defs><filter id="a" x="0" y="0" width="23.89" height="26.89" filterUnits="userSpaceOnUse"><feOffset dy="3" input="SourceAlpha"/><feGaussianBlur result="b"/><feFlood/><feComposite operator="in" in2="b"/><feComposite in="SourceGraphic"/></filter></defs><g transform="translate(0 0)"><g transform="matrix(1, 0, 0, 1, 0, 0)" filter="url(#a)"><path d="M0,13.634s2.082,1.606,4.648,3.693S8.3,20.389,8.3,20.389a7.059,7.059,0,0,0,1.585,2.267,4.36,4.36,0,0,0,2.057,1.234,3.4,3.4,0,0,0,2.011-1.113,7.085,7.085,0,0,0,1.578-2.388l8.356-6.755a12.041,12.041,0,0,1-2.171-2.184,7.873,7.873,0,0,1-1.364-2.36,9.108,9.108,0,0,0,.715-4.875A7.263,7.263,0,0,0,19.23,0L16.07,4.238a9.275,9.275,0,0,0-4.125-.85,9.664,9.664,0,0,0-4.178.85L4.66,0A7.535,7.535,0,0,0,2.785,4.238a9.019,9.019,0,0,0,.643,4.852,5.843,5.843,0,0,1-1.2,2.389A9.747,9.747,0,0,1,0,13.634Z" transform="translate(0 0)" fill="#fff" fill-rule="evenodd"/></g><path d="M3.5,13.92s2.5,1.762,4.652,3.543,2.328,2.222,2.328,2.222a7.3,7.3,0,0,0,.142-3.146,5.174,5.174,0,0,0-1.107-2.62s-.578-.852-2.437-.852A9.161,9.161,0,0,0,3.5,13.92Z" transform="translate(-0.093 0.053)" fill-rule="evenodd"/><path d="M22.5,13.931s-2.5,1.762-4.652,3.543S15.519,19.7,15.519,19.7a7.3,7.3,0,0,1-.142-3.146,5.174,5.174,0,0,1,1.107-2.62s.578-.852,2.437-.852a9.161,9.161,0,0,1,3.579.852Z" transform="translate(-1.825 0.054)" fill-rule="evenodd"/></g></svg>