<svg xmlns="http://www.w3.org/2000/svg" xmlns:xlink="http://www.w3.org/1999/xlink" width="53" height="53" viewBox="0 0 53 53"><defs><clipPath id="b"><rect width="53" height="53"/></clipPath></defs><g id="a" clip-path="url(#b)"><rect width="53" height="53" fill="#324860"/><path d="M11.256-3.863,25.662,10.448,30.921-3.86l39.456,38L39.551,59.082,18.034,36.929Z" transform="translate(5 11)" fill="#28394b" opacity="0.7"/><path d="M.3.06,5.453,10.644h9.3L19.876.089,27.652,23.04,13.291,41.081H7.034L-7.514,23.04Z" transform="translate(16 7)" fill="#d85401"/><path d="M-2.006.194,6,4.325s-3.294.644-4.744.131-1-2.212-1-2.212Z" transform="translate(18 28)" fill="#fff"/><path d="M-.469,1.066l17.7,9.759L34.706,1.072l-14.347,18-3.125-3.156-3.184,3.156Z" transform="translate(9 29)" fill="#fff"/><path d="M6.075.278-1.7,4.316s3.225.7,4.675.188.988-2.275.988-2.275Z" transform="translate(30 27.964)" fill="#fff"/></g></svg>