<svg xmlns="http://www.w3.org/2000/svg" width="13.179" height="12.694" viewBox="0 0 13.179 12.694"><path d="M.854,3.66A5.531,5.531,0,0,0,.723,9.3c.02.043.043.085.065.126a.886.886,0,0,0,.042.082.464.464,0,0,0,.026.046c.014.029.03.056.045.084l.086.146c.016.027.031.053.049.08.03.052.066.1.1.154.014.021.027.043.043.064q.08.126.17.244c.043.059.086.116.132.173l.047.063.122.148c.015.017.03.037.046.054.054.065.111.128.168.192,0,0,0,0,0,0A1.721,1.721,0,0,0,2.1,11.2c.044.045.088.09.135.134l.056.053c.061.057.122.114.186.169l0,0,.031.027c.056.049.113.1.17.143l.069.058c.047.037.1.073.143.11l.075.057c.051.038.106.076.158.114l.058.04.016.013.154.1.066.044c.081.052.161.1.241.149.023.012.046.024.068.037.059.034.121.069.181.1.033.019.067.035.1.052l.128.069a.178.178,0,0,1,.031.013l.053.026c.066.033.135.064.206.1a.448.448,0,0,1,.042.019c.079.035.158.068.24.1.019.005.038.015.058.022l.226.084.027.01c.084.029.167.056.252.082l.061.018a2.673,2.673,0,0,0,.26.075c5.641,1.028,7.281-3.392,7.281-3.392-1.377,1.794-3.821,2.266-6.136,1.74-.086-.02-.172-.047-.258-.073q-.157-.046-.312-.1l-.034-.013c-.075-.025-.147-.053-.22-.081l-.06-.023c-.081-.032-.159-.066-.238-.1-.017-.005-.031-.013-.048-.02l-.2-.093c-.02-.009-.038-.018-.058-.029-.052-.024-.1-.052-.154-.078q-.052-.025-.1-.053c-.062-.033-.124-.069-.186-.1-.019-.013-.04-.024-.062-.036q-.122-.072-.241-.148-.033-.021-.065-.043-.088-.054-.172-.113l-.057-.04q-.082-.057-.162-.117c-.023-.019-.048-.036-.073-.055-.048-.038-.1-.074-.146-.114l-.065-.052q-.093-.075-.184-.154a.142.142,0,0,0-.02-.016l-.191-.174-.055-.052c-.045-.046-.091-.09-.137-.135L3.187,9.5q-.087-.087-.17-.178L3.009,9.31c-.058-.064-.115-.129-.172-.195l-.044-.053L2.669,8.91q-.1-.122-.187-.246a5.949,5.949,0,0,1-.721-6.156m2.714-.26a4.049,4.049,0,0,0-.14,4.123,5,5,0,0,0,.372.622,2.916,2.916,0,0,0,.435.542c.059.067.123.132.189.2l.049.049q.094.091.192.179l.008.007q.111.1.228.188c.019.013.035.027.053.04.077.059.154.117.235.173l.008,0c.034.025.07.047.109.071.015.01.033.023.049.033.058.037.115.073.174.108l.026.013c.049.03.1.059.155.086.018.011.036.019.054.03l.108.056.018.008c.074.036.15.07.224.1.019.007.035.013.051.021.061.026.123.052.184.075.027.009.053.02.079.029.056.021.115.04.17.059l.077.025a1.861,1.861,0,0,0,.246.071c4.355.722,5.363-2.632,5.363-2.632A4.14,4.14,0,0,1,8.659,7.974q-.124-.032-.246-.071c-.026-.007-.049-.015-.075-.023-.057-.02-.116-.039-.172-.06l-.079-.03c-.062-.025-.124-.048-.184-.074-.019-.008-.036-.014-.05-.022-.077-.035-.154-.069-.229-.106L7.51,7.53,7.445,7.5c-.051-.026-.1-.054-.146-.082L7.265,7.4c-.058-.036-.119-.071-.174-.109-.019-.01-.036-.023-.053-.034l-.114-.075c-.079-.055-.157-.114-.235-.172-.018-.016-.035-.029-.052-.043a5.228,5.228,0,0,1-1.78-2.534,3.937,3.937,0,0,1,.307-3.157m2.357-.081a2.538,2.538,0,0,0-.2,2.449A3.457,3.457,0,0,0,9.3,5.491l.107.038.048.015c.051.016.1.035.154.046a2.691,2.691,0,0,0,3.232-1.485,2.361,2.361,0,0,1-2.712.733,2.663,2.663,0,0,1-.284-.088,3.488,3.488,0,0,1-.339-.14,3.585,3.585,0,0,1-.594-.363A2.89,2.89,0,0,1,7.891.679" transform="translate(-0.016 -0.679)" fill="#fff"/></svg>