<svg xmlns="http://www.w3.org/2000/svg" width="13" height="13.033" viewBox="0 0 13 13.033"><path d="M6.568,13.014a6.04,6.04,0,0,0,.774-.051,6.41,6.41,0,0,0,1.708-.469,6.736,6.736,0,0,0,2.06-1.381,6.5,6.5,0,0,0,1.325-1.861,6.4,6.4,0,0,0,.554-1.888,6.769,6.769,0,0,0-.024-1.9,6.5,6.5,0,0,0-.431-1.514,6.08,6.08,0,0,0-.464-.878A6.647,6.647,0,0,0,9.459.737,6.97,6.97,0,0,0,8.279.265h0c.065.034.13.072.187.109s.13.079.191.122a4.849,4.849,0,0,1,.847.722,5.341,5.341,0,0,1,1.2,2.194,7.508,7.508,0,0,1,.269,1.638,6.675,6.675,0,0,1-.026,1.21,4.755,4.755,0,0,1-.667,1.953A4.059,4.059,0,0,1,9.249,9.346a2.975,2.975,0,0,1-2.409.6,2.126,2.126,0,0,1-.406-.14,2.548,2.548,0,0,1-.423-.244,3.3,3.3,0,0,1-.676-.6,3.533,3.533,0,0,1-.57-.949A4,4,0,0,1,4.5,6.639a3.864,3.864,0,0,1,.464-1.993,3.492,3.492,0,0,1,.9-1.042,3.764,3.764,0,0,1,.382-.26l.009,0a2.781,2.781,0,0,0-.782-.065,2.7,2.7,0,0,0-.667.13,3.138,3.138,0,0,0-.553.244,3.338,3.338,0,0,0-.4.269c-.115.1-.228.195-.334.3a4.26,4.26,0,0,0-1.1,2.311,7.555,7.555,0,0,0-.049,1.6,6.825,6.825,0,0,0,.513,2.205,4.626,4.626,0,0,0,.732,1.18,4.421,4.421,0,0,0,1.7,1.211,4.308,4.308,0,0,0,1.147.293.569.569,0,0,0,.113.008l-.011-.017ZM4.975,12.8a2.227,2.227,0,0,1-.244-.124c-.081-.045-.163-.091-.244-.141a4.616,4.616,0,0,1-.863-.692A5.169,5.169,0,0,1,2.4,9.625,8.246,8.246,0,0,1,2.135,7.9,6.593,6.593,0,0,1,2.16,6.772a4.911,4.911,0,0,1,.61-1.944,3.741,3.741,0,0,1,.968-1.115,3.383,3.383,0,0,1,.887-.489,2.912,2.912,0,0,1,1.392-.147,2.748,2.748,0,0,1,.521.122c.016,0,.016,0,.024.016s.024.008.033.016c.024.009.056.024.09.04a3.8,3.8,0,0,1,.382.228A3.418,3.418,0,0,1,8.205,4.859a3.991,3.991,0,0,1,.343,1.6A3.88,3.88,0,0,1,8.2,8.163,3.487,3.487,0,0,1,6.765,9.7c.049.016.1.024.147.041a1.92,1.92,0,0,0,.374.04,3.074,3.074,0,0,0,2.14-.894,2.711,2.711,0,0,0,.293-.318,4.222,4.222,0,0,0,.333-.447,4.651,4.651,0,0,0,.333-.627,4.405,4.405,0,0,0,.276-.9,6.474,6.474,0,0,0,.081-1.643,6.119,6.119,0,0,0-1-3.108,4.917,4.917,0,0,0-.3-.39A5.359,5.359,0,0,0,8.864.889a4.6,4.6,0,0,0-.74-.5A5.391,5.391,0,0,0,7.205.068L7.042.035C6.929.019,6.814.011,6.7,0a4.59,4.59,0,0,0-.551.009A6.334,6.334,0,0,0,5,.194,6.7,6.7,0,0,0,.735,3.62,6.449,6.449,0,0,0,.1,7.37,5.91,5.91,0,0,0,.524,8.987a6.259,6.259,0,0,0,.448.895,6.593,6.593,0,0,0,2.449,2.3,6.75,6.75,0,0,0,1.171.513c.123.04.244.081.374.113l.009-.013Z" transform="translate(-0.045 0.002)" fill="#fff"/></svg>