<svg xmlns="http://www.w3.org/2000/svg" xmlns:xlink="http://www.w3.org/1999/xlink" width="479" height="161" viewBox="0 0 479 161"><defs><clipPath id="b"><rect width="479" height="161"/></clipPath></defs><g id="a" clip-path="url(#b)"><rect width="479" height="161" fill="#de2d2d"/><g transform="translate(147.408 56.636) rotate(-16)"><path d="M21,5H124a15.965,15.965,0,0,1,16,16V174a15.965,15.965,0,0,1-16,16H21A15.965,15.965,0,0,1,5,174V21A15.965,15.965,0,0,1,21,5Z" fill="rgba(0,0,0,0.5)"/><path d="M17,1H120a15.965,15.965,0,0,1,16,16V170a15.965,15.965,0,0,1-16,16H17A15.965,15.965,0,0,1,1,170V17A15.965,15.965,0,0,1,17,1Z" fill="#e7e7e7"/><path d="M19,3H122a15.965,15.965,0,0,1,16,16V172a15.965,15.965,0,0,1-16,16H19A15.965,15.965,0,0,1,3,172V19A15.965,15.965,0,0,1,19,3Z" fill="#c7891f"/><path d="M18,2H121a15.965,15.965,0,0,1,16,16V171a15.965,15.965,0,0,1-16,16H18A15.965,15.965,0,0,1,2,171V18A15.965,15.965,0,0,1,18,2Z" fill="#fff"/><path d="M11.275,12h18.69v4.36L20.3,42h-6.23L23.22,17.684H11.275V12"/><path d="M127.5,177H108.81v-4.36L118.479,147h6.23l-9.154,24.313H127.5V177"/><path d="M20.527,48.665c-2.666,0-4.83,3.264-4.83,7.286,0,3.427,4.392,9.192,4.221,11.93-1.41.782-5.767-6.438-8.019-6.438-2.666,0-4.83,3.263-4.83,7.286s2.163,7.286,4.83,7.286c2.313,0,6.276-7.214,8.019-6.563L16.99,82.326l7.024-.042S20.936,69.8,20.932,69.508h.055v.014c1.707-.64,5.806,6.632,8.1,6.632,2.666,0,4.83-3.263,4.83-7.286s-2.163-7.286-4.83-7.286c-2.243,0-6.308,7.1-8.093,6.368.025-2.805,4.36-8.576,4.36-12,0-4.022-2.163-7.286-4.83-7.286Z" fill-rule="evenodd"/><path d="M51.2,45c-1.553,0-2.813,1.918-2.813,4.281,0,2.014,2.558,5.4,2.459,7.01-.821.46-3.359-3.783-4.671-3.783-1.553,0-2.813,1.918-2.813,4.281s1.26,4.281,2.813,4.281c1.347,0,3.656-4.239,4.671-3.856L49.139,64.78l4.091-.025s-1.792-7.334-1.794-7.508h.032v.008c.994-.376,3.382,3.9,4.719,3.9,1.553,0,2.813-1.918,2.813-4.281s-1.26-4.281-2.813-4.281c-1.306,0-3.674,4.173-4.714,3.742.015-1.649,2.54-5.04,2.54-7.051,0-2.364-1.26-4.281-2.813-4.281Z" fill-rule="evenodd"/><path d="M69.839,60.22c-1.553,0-2.813,1.918-2.813,4.281,0,2.014,2.558,5.4,2.459,7.01-.821.46-3.359-3.783-4.671-3.783C63.26,67.729,62,69.647,62,72.01s1.26,4.281,2.813,4.281c1.347,0,3.656-4.239,4.671-3.856L67.778,80l4.091-.025s-1.792-7.335-1.795-7.508h.032v.008c.994-.376,3.382,3.9,4.719,3.9,1.553,0,2.813-1.918,2.813-4.281s-1.26-4.281-2.813-4.281c-1.306,0-3.674,4.173-4.714,3.742.015-1.649,2.54-5.04,2.54-7.051,0-2.364-1.26-4.281-2.813-4.281Z" fill-rule="evenodd"/><path d="M87.2,45c-1.553,0-2.813,1.918-2.813,4.281,0,2.014,2.558,5.4,2.459,7.01-.821.46-3.359-3.783-4.671-3.783-1.553,0-2.813,1.918-2.813,4.281s1.26,4.281,2.813,4.281c1.347,0,3.656-4.239,4.671-3.856L85.138,64.78l4.091-.025s-1.792-7.334-1.795-7.508h.032v.008c.994-.376,3.382,3.9,4.719,3.9,1.553,0,2.813-1.918,2.813-4.281s-1.26-4.281-2.813-4.281c-1.306,0-3.674,4.173-4.714,3.742.015-1.649,2.54-5.04,2.54-7.051,0-2.364-1.26-4.281-2.813-4.281Z" fill-rule="evenodd"/><path d="M70.2,83c-1.553,0-2.813,1.918-2.813,4.281,0,2.014,2.558,5.4,2.459,7.01-.821.46-3.359-3.783-4.671-3.783-1.553,0-2.813,1.918-2.813,4.281s1.26,4.281,2.813,4.281c1.347,0,3.656-4.239,4.671-3.856l-1.706,7.565,4.091-.025s-1.792-7.335-1.795-7.508h.032v.008c.994-.376,3.382,3.9,4.719,3.9,1.553,0,2.813-1.918,2.813-4.281s-1.26-4.281-2.813-4.281c-1.306,0-3.674,4.173-4.714,3.742.015-1.649,2.54-5.04,2.54-7.051,0-2.364-1.26-4.281-2.813-4.281Z" fill-rule="evenodd"/><path d="M70.161,126.78c1.553,0,2.813-1.918,2.813-4.281,0-2.014-2.558-5.4-2.459-7.01.821-.46,3.359,3.783,4.671,3.783,1.553,0,2.813-1.918,2.813-4.281s-1.26-4.281-2.813-4.281c-1.347,0-3.656,4.239-4.671,3.856L72.222,107l-4.091.025s1.792,7.335,1.795,7.508h-.032v-.008c-.994.376-3.382-3.9-4.719-3.9-1.553,0-2.813,1.918-2.813,4.281s1.26,4.281,2.813,4.281c1.306,0,3.674-4.173,4.714-3.742-.015,1.649-2.54,5.04-2.54,7.051,0,2.364,1.26,4.281,2.813,4.281Z" fill-rule="evenodd"/><path d="M88.161,141.78c1.553,0,2.813-1.918,2.813-4.281,0-2.014-2.558-5.4-2.459-7.01.821-.46,3.359,3.783,4.671,3.783,1.553,0,2.813-1.918,2.813-4.281s-1.26-4.281-2.813-4.281c-1.347,0-3.656,4.239-4.671,3.857L90.222,122l-4.091.025s1.792,7.335,1.795,7.508h-.032v-.008c-.994.376-3.382-3.9-4.719-3.9-1.553,0-2.813,1.918-2.813,4.281s1.26,4.281,2.813,4.281c1.306,0,3.674-4.173,4.714-3.742-.015,1.649-2.54,5.04-2.54,7.051,0,2.364,1.26,4.281,2.813,4.281Z" fill-rule="evenodd"/><path d="M52.8,141.78c1.553,0,2.813-1.918,2.813-4.281,0-2.014-2.558-5.4-2.459-7.01.821-.46,3.359,3.783,4.671,3.783,1.553,0,2.813-1.918,2.813-4.281s-1.26-4.281-2.813-4.281c-1.347,0-3.655,4.239-4.671,3.857L54.861,122l-4.091.025s1.792,7.334,1.794,7.508h-.032v-.008c-.994.376-3.382-3.9-4.719-3.9-1.553,0-2.813,1.918-2.813,4.281s1.26,4.281,2.813,4.281c1.306,0,3.674-4.173,4.714-3.742-.015,1.649-2.54,5.04-2.54,7.051,0,2.364,1.26,4.281,2.813,4.281Z" fill-rule="evenodd"/><path d="M117.54,139.96c2.666,0,4.83-3.264,4.83-7.286,0-3.427-4.392-9.192-4.221-11.93,1.41-.782,5.767,6.438,8.019,6.438,2.666,0,4.83-3.263,4.83-7.286s-2.163-7.286-4.83-7.286c-2.312,0-6.276,7.214-8.019,6.563l2.929-12.874-7.024.042s3.077,12.481,3.081,12.776h-.055V119.1c-1.707.64-5.806-6.632-8.1-6.632-2.666,0-4.83,3.263-4.83,7.286s2.163,7.286,4.83,7.286c2.243,0,6.308-7.1,8.093-6.368-.025,2.805-4.36,8.576-4.36,12,0,4.022,2.163,7.286,4.83,7.286Z" fill-rule="evenodd"/></g><g transform="matrix(0.998, -0.07, 0.07, 0.998, 239.51, 31.15)"><path d="M21,5H124a15.965,15.965,0,0,1,16,16V174a15.965,15.965,0,0,1-16,16H21A15.965,15.965,0,0,1,5,174V21A15.965,15.965,0,0,1,21,5Z" fill="rgba(0,0,0,0.5)"/><path d="M17,1H120a15.965,15.965,0,0,1,16,16V170a15.965,15.965,0,0,1-16,16H17A15.965,15.965,0,0,1,1,170V17A15.965,15.965,0,0,1,17,1Z" fill="#e7e7e7"/><path d="M19,3H122a15.965,15.965,0,0,1,16,16V172a15.965,15.965,0,0,1-16,16H19A15.965,15.965,0,0,1,3,172V19A15.965,15.965,0,0,1,19,3Z" fill="#c7891f"/><path d="M18,2H121a15.965,15.965,0,0,1,16,16V171a15.965,15.965,0,0,1-16,16H18A15.965,15.965,0,0,1,2,171V18A15.965,15.965,0,0,1,18,2Z" fill="#fff"/><path d="M11.275,12h18.69v4.36L20.3,42h-6.23L23.22,17.684H11.275V12" fill="red"/><path d="M127.5,177H108.81v-4.36L118.479,147h6.23l-9.154,24.313H127.5V177" fill="red"/><path d="M20.41,48.665c-4.126,8.245-7.134,12.5-13.34,17.04a41.03,41.03,0,0,1,13.46,16.62C23.609,75.2,27.376,69.9,33.92,65.482c-6.582-3.349-10.393-8.654-13.51-16.817Z" fill="red" fill-rule="evenodd"/><path d="M51.13,45c-2.4,4.845-4.156,7.344-7.77,10.013A24.071,24.071,0,0,1,51.2,64.78a21.079,21.079,0,0,1,7.8-9.9C55.166,52.914,52.946,49.8,51.13,45Z" fill="red" fill-rule="evenodd"/><path d="M87.77,45.22c-2.4,4.845-4.156,7.344-7.77,10.013A24.072,24.072,0,0,1,87.84,65a21.079,21.079,0,0,1,7.8-9.9c-3.834-1.968-6.054-5.085-7.87-9.882Z" fill="red" fill-rule="evenodd"/><path d="M70.13,60.22c-2.4,4.845-4.156,7.344-7.77,10.013A24.072,24.072,0,0,1,70.2,80,21.079,21.079,0,0,1,78,70.1c-3.834-1.968-6.054-5.085-7.87-9.882Z" fill="red" fill-rule="evenodd"/><path d="M70.13,83.22c-2.4,4.845-4.156,7.344-7.77,10.013A24.072,24.072,0,0,1,70.2,103,21.079,21.079,0,0,1,78,93.1c-3.834-1.968-6.054-5.085-7.87-9.882Z" fill="red" fill-rule="evenodd"/><path d="M52.77,122.22c-2.4,4.845-4.156,7.344-7.77,10.013A24.071,24.071,0,0,1,52.84,142a21.079,21.079,0,0,1,7.8-9.9c-3.834-1.968-6.054-5.085-7.87-9.882Z" fill="red" fill-rule="evenodd"/><path d="M70.13,107.22c-2.4,4.845-4.156,7.344-7.77,10.013A24.072,24.072,0,0,1,70.2,127a21.079,21.079,0,0,1,7.8-9.9c-3.834-1.968-6.054-5.085-7.87-9.882Z" fill="red" fill-rule="evenodd"/><path d="M88.13,122.22c-2.4,4.845-4.156,7.344-7.77,10.013A24.071,24.071,0,0,1,88.2,142a21.079,21.079,0,0,1,7.8-9.9c-3.834-1.968-6.054-5.085-7.87-9.882Z" fill="red" fill-rule="evenodd"/><path d="M118.34,106.34c-4.126,8.245-7.134,12.5-13.34,17.04A41.03,41.03,0,0,1,118.46,140c3.079-7.121,6.846-12.43,13.39-16.843-6.582-3.349-10.393-8.654-13.51-16.817Z" fill="red" fill-rule="evenodd"/></g><g transform="translate(310 27)"><path d="M21,5H124a15.965,15.965,0,0,1,16,16V174a15.965,15.965,0,0,1-16,16H21A15.965,15.965,0,0,1,5,174V21A15.965,15.965,0,0,1,21,5Z" fill="rgba(0,0,0,0.5)"/><path d="M17,1H120a15.965,15.965,0,0,1,16,16V170a15.965,15.965,0,0,1-16,16H17A15.965,15.965,0,0,1,1,170V17A15.965,15.965,0,0,1,17,1Z" fill="#e7e7e7"/><path d="M19,3H122a15.965,15.965,0,0,1,16,16V172a15.965,15.965,0,0,1-16,16H19A15.965,15.965,0,0,1,3,172V19A15.965,15.965,0,0,1,19,3Z" fill="#c7891f"/><path d="M18,2H121a15.965,15.965,0,0,1,16,16V171a15.965,15.965,0,0,1-16,16H18A15.965,15.965,0,0,1,2,171V18A15.965,15.965,0,0,1,18,2Z" fill="#fff"/><path d="M-330.9-155.688a3.349,3.349,0,0,0-2.758,1.186,5.263,5.263,0,0,0-.964,3.4,5.263,5.263,0,0,0,.964,3.4,3.375,3.375,0,0,0,2.758,1.165,3.308,3.308,0,0,0,2.725-1.165,5.329,5.329,0,0,0,.947-3.4,5.278,5.278,0,0,0-.947-3.4,3.283,3.283,0,0,0-2.725-1.186m-4.668-2.552a6.716,6.716,0,0,1-3.406-2.532,7.478,7.478,0,0,1-1.146-4.26,7.17,7.17,0,0,1,2.342-5.787q2.342-1.989,6.878-1.989,4.5,0,6.845,1.989a7.133,7.133,0,0,1,2.342,5.787,7.4,7.4,0,0,1-1.163,4.26,6.715,6.715,0,0,1-3.406,2.532,7.109,7.109,0,0,1,3.8,2.753,8.268,8.268,0,0,1,1.3,4.782q0,4.461-2.459,6.752-2.442,2.271-7.26,2.271-4.834,0-7.31-2.271-2.459-2.291-2.459-6.752a8.349,8.349,0,0,1,1.279-4.782,7.194,7.194,0,0,1,3.821-2.753m1.5-6.008a4.153,4.153,0,0,0,.814,2.753,2.944,2.944,0,0,0,2.359.965,2.855,2.855,0,0,0,2.309-.965,4.154,4.154,0,0,0,.814-2.753,4.071,4.071,0,0,0-.814-2.733,2.855,2.855,0,0,0-2.309-.965,2.944,2.944,0,0,0-2.359.965,4.119,4.119,0,0,0-.814,2.733" transform="translate(351.5 184.5)" fill="red"/><path d="M233.476,24.151a3.349,3.349,0,0,0-2.758,1.186,5.263,5.263,0,0,0-.964,3.4,5.263,5.263,0,0,0,.964,3.4,3.375,3.375,0,0,0,2.758,1.165,3.308,3.308,0,0,0,2.725-1.165,5.329,5.329,0,0,0,.947-3.4,5.278,5.278,0,0,0-.947-3.4,3.283,3.283,0,0,0-2.725-1.186M228.807,21.6a6.716,6.716,0,0,1-3.406-2.532,7.478,7.478,0,0,1-1.146-4.26A7.17,7.17,0,0,1,226.6,9.02q2.343-1.989,6.878-1.989,4.5,0,6.845,1.989a7.134,7.134,0,0,1,2.342,5.787,7.4,7.4,0,0,1-1.163,4.26,6.715,6.715,0,0,1-3.406,2.532,7.109,7.109,0,0,1,3.8,2.753,8.268,8.268,0,0,1,1.3,4.782q0,4.461-2.459,6.752-2.442,2.271-7.26,2.271-4.834,0-7.31-2.271-2.459-2.291-2.459-6.752a8.348,8.348,0,0,1,1.279-4.782,7.194,7.194,0,0,1,3.821-2.753m1.5-6.008a4.153,4.153,0,0,0,.814,2.753,2.944,2.944,0,0,0,2.359.965,2.855,2.855,0,0,0,2.309-.965,4.153,4.153,0,0,0,.814-2.753,4.071,4.071,0,0,0-.814-2.733,2.855,2.855,0,0,0-2.309-.965,2.944,2.944,0,0,0-2.359.965,4.119,4.119,0,0,0-.814,2.733" transform="translate(351.5 184.5) rotate(180)" fill="red"/><path d="M20.41,48.665c-4.126,8.245-7.134,12.5-13.34,17.04a41.03,41.03,0,0,1,13.46,16.62C23.609,75.2,27.376,69.9,33.92,65.482c-6.582-3.349-10.393-8.654-13.51-16.817Z" fill="red" fill-rule="evenodd"/><path d="M49.13,36.22c-2.4,4.845-4.156,7.344-7.77,10.013A24.071,24.071,0,0,1,49.2,56,21.079,21.079,0,0,1,57,46.1c-3.834-1.968-6.054-5.085-7.87-9.882Z" fill="red" fill-rule="evenodd"/><path d="M90.13,36.22c-2.4,4.845-4.156,7.344-7.77,10.013A24.072,24.072,0,0,1,90.2,56,21.079,21.079,0,0,1,98,46.1c-3.834-1.968-6.054-5.085-7.87-9.882Z" fill="red" fill-rule="evenodd"/><path d="M48.77,71.22c-2.4,4.845-4.156,7.344-7.77,10.013A24.072,24.072,0,0,1,48.84,91a21.079,21.079,0,0,1,7.8-9.9c-3.834-1.968-6.054-5.085-7.87-9.882Z" fill="red" fill-rule="evenodd"/><path d="M88.13,70.22c-2.4,4.845-4.156,7.344-7.77,10.013A24.072,24.072,0,0,1,88.2,90,21.079,21.079,0,0,1,96,80.1c-3.834-1.968-6.054-5.085-7.87-9.882Z" fill="red" fill-rule="evenodd"/><path d="M89.77,100c-2.4,4.845-4.156,7.344-7.77,10.013a24.072,24.072,0,0,1,7.84,9.767,21.079,21.079,0,0,1,7.8-9.9c-3.834-1.968-6.054-5.085-7.87-9.882Z" fill="red" fill-rule="evenodd"/><path d="M48.13,100c-2.4,4.845-4.156,7.344-7.77,10.013a24.072,24.072,0,0,1,7.84,9.767,21.079,21.079,0,0,1,7.8-9.9c-3.834-1.968-6.054-5.085-7.87-9.882Z" fill="red" fill-rule="evenodd"/><path d="M49.13,130c-2.4,4.845-4.156,7.344-7.77,10.013a24.071,24.071,0,0,1,7.84,9.767,21.079,21.079,0,0,1,7.8-9.9c-3.834-1.968-6.054-5.085-7.87-9.882Z" fill="red" fill-rule="evenodd"/><path d="M90.13,130.22c-2.4,4.845-4.156,7.344-7.77,10.013A24.071,24.071,0,0,1,90.2,150a21.079,21.079,0,0,1,7.8-9.9c-3.834-1.968-6.054-5.085-7.87-9.882Z" fill="red" fill-rule="evenodd"/><path d="M118.34,106.34c-4.126,8.245-7.134,12.5-13.34,17.04A41.03,41.03,0,0,1,118.46,140c3.079-7.121,6.846-12.43,13.39-16.843-6.582-3.349-10.393-8.654-13.51-16.817Z" fill="red" fill-rule="evenodd"/></g></g></svg>