<svg xmlns="http://www.w3.org/2000/svg" xmlns:xlink="http://www.w3.org/1999/xlink" width="479" height="161" viewBox="0 0 479 161"><defs><filter id="a" x="179.173" y="0.551" width="149.363" height="72.883" filterUnits="userSpaceOnUse"><feOffset dx="22" dy="24" input="SourceAlpha"/><feGaussianBlur result="b"/><feFlood flood-opacity="0.161"/><feComposite operator="in" in2="b"/><feComposite in="SourceGraphic"/></filter><filter id="c" x="203.195" y="55.249" width="115.563" height="62.133" filterUnits="userSpaceOnUse"><feOffset dx="22" dy="24" input="SourceAlpha"/><feGaussianBlur result="d"/><feFlood flood-opacity="0.161"/><feComposite operator="in" in2="d"/><feComposite in="SourceGraphic"/></filter><filter id="e" x="160.095" y="87.44" width="152.072" height="96.716" filterUnits="userSpaceOnUse"><feOffset dx="22" dy="24" input="SourceAlpha"/><feGaussianBlur result="f"/><feFlood flood-opacity="0.161"/><feComposite operator="in" in2="f"/><feComposite in="SourceGraphic"/></filter><clipPath id="h"><rect width="479" height="161"/></clipPath></defs><g id="g" clip-path="url(#h)"><rect width="479" height="161" fill="#30aabc"/><g transform="matrix(0.843, 0.089, -0.177, 0.977, 170.529, -5.485)"><g transform="translate(-162.979 -46)"><g transform="matrix(1.16, -0.11, 0.21, 1, -34.28, 69.51)" filter="url(#a)"><path d="M12,0H123a12,12,0,0,1,12,12V31a12,12,0,0,1-12,12l-127.771.153C-11.4,43.153,0,37.627,0,31V12A12,12,0,0,1,12,0Z" transform="matrix(0.84, 0.09, -0.18, 0.98, 189.95, -3.44)" fill="#fff"/></g><g transform="translate(199 54)" fill="none" stroke="#707070" stroke-width="1"><rect width="83" height="2" stroke="none"/><rect x="0.5" y="0.5" width="82" height="1" fill="none"/></g><g transform="translate(199 62)" fill="none" stroke="#707070" stroke-width="1"><rect width="36" height="2" stroke="none"/><rect x="0.5" y="0.5" width="35" height="1" fill="none"/></g><g transform="translate(244 62)" fill="none" stroke="#707070" stroke-width="1"><rect width="64" height="2" stroke="none"/><rect x="0.5" y="0.5" width="63" height="1" fill="none"/></g><g transform="translate(199 70)" fill="none" stroke="#707070" stroke-width="1"><rect width="109" height="2" stroke="none"/><rect x="0.5" y="0.5" width="108" height="1" fill="none"/></g><g transform="translate(199 78)" fill="none" stroke="#707070" stroke-width="1"><rect width="14" height="2" stroke="none"/><rect x="0.5" y="0.5" width="13" height="1" fill="none"/></g><g transform="translate(222 78)" fill="none" stroke="#707070" stroke-width="1"><rect width="37" height="2" stroke="none"/><rect x="0.5" y="0.5" width="36" height="1" fill="none"/></g><g transform="translate(270 78)" fill="none" stroke="#707070" stroke-width="1"><rect width="38" height="2" stroke="none"/><rect x="0.5" y="0.5" width="37" height="1" fill="none"/></g><g transform="translate(291 54)" fill="none" stroke="#707070" stroke-width="1"><rect width="17" height="2" stroke="none"/><rect x="0.5" y="0.5" width="16" height="1" fill="none"/></g></g><g transform="translate(16.179 43)"><g transform="matrix(1.16, -0.11, 0.21, 1, -213.44, -19.49)" filter="url(#c)"><path d="M81.458,0H1.772A8.439,8.439,0,0,0-6.842,8.252V21.319a8.439,8.439,0,0,0,8.615,8.252l91.726.105c4.758,0-3.425-3.8-3.425-8.358V8.252A8.439,8.439,0,0,0,81.458,0Z" transform="matrix(0.84, 0.09, -0.18, 0.98, 213.71, 55.29)" fill="#fff"/></g><g transform="translate(13 32)"><g transform="translate(81 -4)" fill="none" stroke="#707070" stroke-width="1"><rect width="34" height="2" stroke="none"/><rect x="0.5" y="0.5" width="33" height="1" fill="none"/></g><g transform="translate(36 -4)" fill="none" stroke="#707070" stroke-width="1"><rect width="37" height="2" stroke="none"/><rect x="0.5" y="0.5" width="36" height="1" fill="none"/></g></g><g transform="translate(13 39.5)"><g transform="translate(63 -4)" fill="none" stroke="#707070" stroke-width="1"><rect width="52" height="2" stroke="none"/><rect x="0.5" y="0.5" width="51" height="1" fill="none"/></g><g transform="translate(36 -4)" fill="none" stroke="#707070" stroke-width="1"><rect width="18" height="2" stroke="none"/><rect x="0.5" y="0.5" width="17" height="1" fill="none"/></g></g><g transform="translate(47.929 20.5)" fill="none" stroke="#707070" stroke-width="1"><rect width="80" height="2" stroke="none"/><rect x="0.5" y="0.5" width="79" height="1" fill="none"/></g></g><g transform="translate(-162.979 48)"><g transform="matrix(1.16, -0.11, 0.21, 1, -34.28, -24.49)" filter="url(#e)"><path d="M12,0H123c6.627,0,12,7.023,12,15.686V40.521c0,8.663-5.373,15.686-12,15.686l-127.771.2C-11.4,56.406,0,49.184,0,40.521V15.686C0,7.023,5.373,0,12,0Z" transform="matrix(0.84, 0.09, -0.18, 0.98, 173.32, 88.41)" fill="#fff"/></g><g transform="translate(199 63)" fill="none" stroke="#707070" stroke-width="1"><rect width="36" height="2" stroke="none"/><rect x="0.5" y="0.5" width="35" height="1" fill="none"/></g><g transform="translate(272 94)" fill="none" stroke="#707070" stroke-width="1"><rect width="36" height="2" stroke="none"/><rect x="0.5" y="0.5" width="35" height="1" fill="none"/></g><g transform="translate(244 63)" fill="none" stroke="#707070" stroke-width="1"><rect width="64" height="2" stroke="none"/><rect x="0.5" y="0.5" width="63" height="1" fill="none"/></g><g transform="translate(199 94)" fill="none" stroke="#707070" stroke-width="1"><rect width="64" height="2" stroke="none"/><rect x="0.5" y="0.5" width="63" height="1" fill="none"/></g><g transform="translate(199 74)" fill="none" stroke="#707070" stroke-width="1"><rect width="109" height="2" stroke="none"/><rect x="0.5" y="0.5" width="108" height="1" fill="none"/></g><g transform="translate(199 53)" fill="none" stroke="#707070" stroke-width="1"><rect width="109" height="2" stroke="none"/><rect x="0.5" y="0.5" width="108" height="1" fill="none"/></g><g transform="translate(199 84)" fill="none" stroke="#707070" stroke-width="1"><rect width="14" height="2" stroke="none"/><rect x="0.5" y="0.5" width="13" height="1" fill="none"/></g><g transform="translate(222 84)" fill="none" stroke="#707070" stroke-width="1"><rect width="37" height="2" stroke="none"/><rect x="0.5" y="0.5" width="36" height="1" fill="none"/></g><g transform="translate(270 84)" fill="none" stroke="#707070" stroke-width="1"><rect width="38" height="2" stroke="none"/><rect x="0.5" y="0.5" width="37" height="1" fill="none"/></g></g><path d="M8.539,8a8.539,8.539,0,1,0,8.539,8.539A8.537,8.537,0,0,0,8.539,8Zm0,15.424a6.886,6.886,0,1,1,6.886-6.886A6.893,6.893,0,0,1,8.539,23.424Zm3.636-5.213a12.779,12.779,0,0,1-3.636.451A12.8,12.8,0,0,1,4.9,18.212a.473.473,0,0,0-.609.527c.272,1.622,2.455,2.754,4.245,2.754s3.97-1.133,4.245-2.754A.474.474,0,0,0,12.174,18.212Zm-8.081-1.4a.412.412,0,0,0,.527.086l2.754-1.653a.415.415,0,0,0,0-.709L4.62,12.879a.414.414,0,0,0-.53.62l1.157,1.388L4.09,16.273A.412.412,0,0,0,4.094,16.807Zm8.363.086a.414.414,0,0,0,.53-.62L11.83,14.886,12.987,13.5a.412.412,0,0,0,0-.534.42.42,0,0,0-.527-.086L9.7,14.531a.415.415,0,0,0,0,.709l2.754,1.653Z" transform="translate(-3.381 30.22) rotate(-25)" fill="#fff700"/><path d="M12.176,18.214a12.781,12.781,0,0,1-3.636.451A12.8,12.8,0,0,1,4.9,18.214a.473.473,0,0,0-.61.527C4.566,20.366,6.749,21.5,8.54,21.5s3.97-1.133,4.246-2.755A.474.474,0,0,0,12.176,18.214ZM6.915,16.53a.3.3,0,0,0,.362-.207l.668-2.407a1.218,1.218,0,0,0-.992-1.532,1.308,1.308,0,0,0-1.429.961l-.069.244-.244-.065a1.3,1.3,0,0,0-1.546.758A1.221,1.221,0,0,0,4.5,15.906l2.417.623Zm6.5-2.249a1.306,1.306,0,0,0-1.546-.758l-.244.065-.069-.244a1.3,1.3,0,0,0-1.429-.961,1.218,1.218,0,0,0-.992,1.532L9.8,16.323a.3.3,0,0,0,.362.207l2.417-.627a1.217,1.217,0,0,0,.833-1.622ZM8.54,8a8.54,8.54,0,1,0,8.54,8.54A8.539,8.539,0,0,0,8.54,8Zm0,15.427a6.887,6.887,0,1,1,6.887-6.887A6.894,6.894,0,0,1,8.54,23.427Z" transform="translate(160.193 66.577) rotate(20)" fill="#ff5d5d"/><path d="M0,16.54A8.54,8.54,0,1,0,8.54,8,8.539,8.539,0,0,0,0,16.54Zm6.887-1.653a1.1,1.1,0,1,1-1.1-1.1A1.1,1.1,0,0,1,6.887,14.887Zm5.458.568a1.788,1.788,0,0,0-2.1,0l-.327.293a.413.413,0,0,1-.682-.372,2.071,2.071,0,0,1,2.063-1.45,2.071,2.071,0,0,1,2.063,1.45.413.413,0,0,1-.682.372ZM5.434,18.944a4.046,4.046,0,0,0,6.212,0,.551.551,0,0,1,.847.706,5.147,5.147,0,0,1-7.906,0,.55.55,0,0,1,.847-.7Z" transform="translate(1.069 133.03) rotate(-7)" fill="lime"/></g></g></svg>