<svg xmlns="http://www.w3.org/2000/svg" xmlns:xlink="http://www.w3.org/1999/xlink" width="479" height="161" viewBox="0 0 479 161"><defs><linearGradient id="a" x1="0.632" y1="0.404" x2="-0.152" y2="1.102" gradientUnits="objectBoundingBox"><stop offset="0"/><stop offset="1" stop-opacity="0"/></linearGradient><clipPath id="c"><rect width="479" height="161"/></clipPath></defs><g id="b" clip-path="url(#c)"><rect width="479" height="161" fill="#fff"/><g transform="translate(180.758 -19.022)"><path d="M41.581,200.15.044,241.686c-.208,49.041,23.007,77.349,77.643,77.838L117.51,279.7V200.15Z" transform="translate(-0.034 -160.316)" opacity="0.42" fill="url(#a)"/><path d="M208.75,200.15V279.7h75.93V200.15Zm7.15,7.491h61.63v56.815H215.9Zm31.42,7.21A11.278,11.278,0,1,0,258.6,226.13a11.278,11.278,0,0,0-11.278-11.278Zm10.127,22.328a14.94,14.94,0,0,1-20.241.008,20.662,20.662,0,0,0-9.019,17.238q.006.151.013.3h38.242q.008-.151.014-.3a20.664,20.664,0,0,0-9.006-17.246h0Z" transform="translate(-167.204 -160.316)" fill="#fff"/></g></g></svg>