<svg xmlns="http://www.w3.org/2000/svg" xmlns:xlink="http://www.w3.org/1999/xlink" width="479" height="161" viewBox="0 0 479 161"><defs><clipPath id="a"><rect width="135" height="50" transform="translate(-0.088 -0.253)" fill="#fff"/></clipPath><clipPath id="c"><rect width="479" height="161"/></clipPath></defs><g id="b" clip-path="url(#c)"><rect width="479" height="161" fill="#ff4000"/><g transform="translate(-223 27)"><g transform="translate(395.088 29.253)" clip-path="url(#a)"><path d="M118.5,48.395c-.117,0-.2.026-.317.026Q116.1,48.621,118.5,48.395ZM3.319,14.05a63.217,63.217,0,0,0-2.864,16.9c-.117,8.793,5.929,18.3,15.108,18.472,16.238.288,85.689.86,102.4-.729,4.981-.488,9.708-.918,12.572-4.927,2.864-3.95,1.111-7.048-2.1-9.839-4.493-2.605-13.847-3.586-20.2-4.8a80.756,80.756,0,0,1-9.23-2.325l-.171-.087L93.458,23.94a104.218,104.218,0,0,1-9.653,17.076,2.576,2.576,0,0,1-1.891.8,2.657,2.657,0,0,1-1.775-.689,2.576,2.576,0,0,1-.117-3.644,128.741,128.741,0,0,0,8.228-14.252,15.576,15.576,0,0,0,.517-1.662L85.3,19.8c0,.055-.029.084-.029.142C84.181,24.136,75.344,36.016,72.2,39a2.6,2.6,0,0,1-1.775.689,2.711,2.711,0,0,1-1.891-.8,2.576,2.576,0,0,1,.117-3.644c1.374-1.29,10.437-12.193,11.614-16.635a11.847,11.847,0,0,0,.255-1.257l-3.371-1.72c-.142.689-.343,1.374-.543,2.033-1.549,4.5-12.025,16-15.414,18.286a2.613,2.613,0,0,1-1.432.43,2.573,2.573,0,0,1-1.432-4.737,73.023,73.023,0,0,0,13.41-15.669,11.909,11.909,0,0,0,.572-2.864L63.6,8.675a42.127,42.127,0,0,1-4.154-2.551c-2.234-1.487-11.81-7.379-12.82-5.59a12.867,12.867,0,0,0-.977,2.292c-.113.313-.23.656-.364.973A20.527,20.527,0,0,1,34.742,15.1a26.6,26.6,0,0,1-15.3,1.95,9.434,9.434,0,0,1-5.7-2.507,10.327,10.327,0,0,1-1.487-2.31,11.449,11.449,0,0,0-.947-1.574,4.2,4.2,0,0,0-3.28-1.545,2.154,2.154,0,0,0-.43.029c-2.46.255-3.462,2.088-4.293,4.923Z" transform="translate(0.956 -0.438)" fill="#fff"/></g></g></g></svg>