<svg xmlns="http://www.w3.org/2000/svg" xmlns:xlink="http://www.w3.org/1999/xlink" width="479" height="161" viewBox="0 0 479 161"><defs><clipPath id="b"><rect width="479" height="161"/></clipPath></defs><g id="a" clip-path="url(#b)"><rect width="479" height="161" fill="#de2d2d"/><g transform="translate(182 23)" fill="none" stroke="#fff" stroke-width="12" stroke-dasharray="66 24"><circle cx="58" cy="58" r="58" stroke="none"/><circle cx="58" cy="58" r="52" fill="none"/></g><g transform="translate(201 43)" fill="none" stroke-dasharray="66 111"><path d="M38.5,0A38.5,38.5,0,1,1,0,38.5,38.5,38.5,0,0,1,38.5,0Z" stroke="none"/><path d="M 38.5 0 C 59.76295471191406 0 77 17.23704528808594 77 38.5 C 77 38.50638198852539 77 38.51282501220703 76.99999237060547 38.51920700073242 C 76.99999237060547 38.52050399780273 76.99999237060547 38.52389526367188 76.99999237060547 38.52519226074219 C 76.99998474121094 38.53020858764648 76.99998474121094 38.53543090820313 76.99997711181641 38.54044342041016 C 76.99997711181641 38.54303741455078 76.99997711181641 38.54251098632813 76.99997711181641 38.54510498046875 C 76.99996948242188 38.55148315429688 76.99995422363281 38.55789184570313 76.99994659423828 38.56427383422852 C 76.99994659423828 38.56557083129883 76.99993896484375 38.5676383972168 76.99993896484375 38.56893539428711 C 76.99993133544922 38.57394790649414 76.99992370605469 38.57905578613281 76.99990844726563 38.58406448364258 C 76.99990844726563 38.58536148071289 76.99990081787109 38.588623046875 76.99989318847656 38.58992004394531 C 76.99988555908203 38.5963020324707 76.99986267089844 38.60270690917969 76.99984741210938 38.60908126831055 C 76.99984741210938 38.60908126831055 76.99984741210938 38.61069869995117 76.99984741210938 38.61069869995117 C 76.99982452392578 38.61673355102539 76.99980926513672 38.62283325195313 76.99978637695313 38.62886810302734 C 76.99977874755859 38.63146209716797 76.99977874755859 38.63171005249023 76.99977111816406 38.63430404663086 C 76.999755859375 38.63942718505859 76.99973297119141 38.64438629150391 76.99971771240234 38.64950942993164 C 76.99970245361328 38.65210342407227 76.99971008300781 38.65179824829102 76.99969482421875 38.65439224243164 C 76.99967193603516 38.66053771972656 76.99964904785156 38.66682815551758 76.99961853027344 38.6729736328125 C 76.99961090087891 38.67556762695313 76.99960327148438 38.67639923095703 76.99958801269531 38.67899322509766 C 76.99957275390625 38.68365859985352 76.99954986572266 38.68853759765625 76.99952697753906 38.69320678710938 C 76.99951934814453 38.69449996948242 76.99950408935547 38.69797897338867 76.99949645996094 38.69927597045898 C 76.99945831298828 38.70565032958984 76.99942779541016 38.71184539794922 76.99939727783203 38.71821975708008 C 76.9993896484375 38.71951675415039 76.9993896484375 38.71932220458984 76.99938201904297 38.72061920166016 C 76.99935150146484 38.72642135620117 76.99931335449219 38.73224258422852 76.99927520751953 38.73804473876953 C 76.99925994873047 38.74063873291016 76.99925994873047 38.74059677124023 76.99924468994141 38.74319076538086 C 76.99921417236328 38.74853897094727 76.99917602539063 38.75402450561523 76.9991455078125 38.75937271118164 C 76.99913787841797 38.76066589355469 76.99912261962891 38.76211547851563 76.99911499023438 38.76341247558594 C 76.99907684326172 38.76978302001953 76.99903106689453 38.77598190307617 76.99898529052734 38.78235244750977 C 76.99897766113281 38.78364944458008 76.99895477294922 38.78665924072266 76.99894714355469 38.7879524230957 C 76.99890899658203 38.79273223876953 76.99887084960938 38.79767608642578 76.99883270263672 38.80245208740234 C 76.99882507324219 38.80374908447266 76.99880218505859 38.80688095092773 76.99879455566406 38.80817413330078 C 76.99874114990234 38.81443023681641 76.99869537353516 38.82060623168945 76.99864196777344 38.82686233520508 C 76.99862670898438 38.82815551757813 76.99861145019531 38.83071136474609 76.99859619140625 38.83200454711914 C 76.99855804443359 38.83678436279297 76.99851989746094 38.84149932861328 76.99847412109375 38.84627532958984 C 76.99845123291016 38.8488655090332 76.99843597412109 38.8505973815918 76.9984130859375 38.85318756103516 C 76.99836730957031 38.85864639282227 76.99831390380859 38.86391448974609 76.99826049804688 38.86936950683594 C 76.99825286865234 38.87066650390625 76.99825286865234 38.87081909179688 76.99823760986328 38.87211608886719 C 76.99817657470703 38.87859725952148 76.99811553955078 38.88505172729492 76.998046875 38.89153289794922 C 76.99803924560547 38.89282608032227 76.99800872802734 38.89545440673828 76.99799346923828 38.89675140380859 C 76.99794769287109 38.90175247192383 76.99789428710938 38.90663909912109 76.99784088134766 38.91164016723633 C 76.99783325195313 38.91293334960938 76.99779510498047 38.91608047485352 76.99777984619141 38.91737365722656 C 76.99771881103516 38.92374038696289 76.99765014648438 38.92996597290039 76.99758148193359 38.93632888793945 C 76.99756622314453 38.9376220703125 76.99755859375 38.93832778930664 76.99754333496094 38.93962097167969 C 76.99748229980469 38.94507598876953 76.99741363525391 38.95062637329102 76.99735260009766 38.95608139038086 C 76.99732208251953 38.95867156982422 76.99732208251953 38.95900726318359 76.99729156494141 38.96159744262695 C 76.99722290039063 38.96716690063477 76.99716186523438 38.97262191772461 76.99709320068359 38.97819137573242 C 76.99707794189453 38.97948455810547 76.9970703125 38.98005294799805 76.99705505371094 38.98134613037109 C 76.99697113037109 38.98782348632813 76.99689483642578 38.99424743652344 76.99681091308594 39.00072479248047 C 76.99679565429688 39.00201797485352 76.99675750732422 39.00458908081055 76.99674224853516 39.00588226318359 C 76.99668121337891 39.01065444946289 76.99662017822266 39.01546096801758 76.99655914306641 39.02023315429688 C 76.99653625488281 39.02152633666992 76.99649047851563 39.0251350402832 76.99647521972656 39.02642822265625 C 76.99639129638672 39.03278732299805 76.99630737304688 39.03895568847656 76.9962158203125 39.04531860351563 C 76.99620056152344 39.04661178588867 76.99618530273438 39.04740142822266 76.99617004394531 39.0486946105957 C 76.99609375 39.05403137207031 76.99601745605469 39.05938720703125 76.99594116210938 39.06472396850586 C 76.99590301513672 39.06731033325195 76.99588775634766 39.06860733032227 76.995849609375 39.07119369506836 C 76.99577331542969 39.07607650756836 76.99570465087891 39.08116149902344 76.99562835693359 39.08604431152344 C 76.99561309814453 39.08733749389648 76.99558258056641 39.08926773071289 76.99555969238281 39.09056091308594 C 76.99546813964844 39.09680557250977 76.99537658691406 39.10284805297852 76.99527740478516 39.10909271240234 C 76.99526214599609 39.11038589477539 76.99520111083984 39.11397171020508 76.99518585205078 39.11526489257813 C 76.99510955810547 39.11991882324219 76.99503326416016 39.12460708618164 76.99495697021484 39.1292610168457 C 76.99491882324219 39.1318473815918 76.99490356445313 39.13287734985352 76.99485778808594 39.13546371459961 C 76.99475860595703 39.14159393310547 76.99465942382813 39.14768981933594 76.99456024169922 39.1538200378418 C 76.99451446533203 39.15640258789063 76.99451446533203 39.15643692016602 76.99446868896484 39.15902328491211 C 76.99439239501953 39.16390228271484 76.99430847167969 39.16856384277344 76.99422454833984 39.17344284057617 C 76.99418640136719 39.17602920532227 76.99416351318359 39.17723083496094 76.99411773681641 39.17981719970703 C 76.99403381347656 39.18469619750977 76.99394989013672 39.18966293334961 76.99385833740234 39.19454193115234 C 76.99381256103516 39.19712448120117 76.99378204345703 39.19911575317383 76.99373626708984 39.20170211791992 C 76.99363708496094 39.20714569091797 76.99353790283203 39.21250915527344 76.99343872070313 39.21795654296875 C 76.99341583251953 39.2192497253418 76.99334716796875 39.22274780273438 76.99332427978516 39.22404098510742 C 76.99323272705078 39.22903060913086 76.99314117431641 39.23391342163086 76.99304962158203 39.23890686035156 C 76.99302673339844 39.24020004272461 76.99298095703125 39.242431640625 76.99295806884766 39.24372482299805 C 76.99284362792969 39.24996566772461 76.99272155761719 39.25619888305664 76.99259948730469 39.2624397277832 C 76.9925537109375 39.26502227783203 76.99253845214844 39.2657585144043 76.99248504638672 39.26834106445313 C 76.99239349365234 39.27287673950195 76.99230194091797 39.27760314941406 76.99221038818359 39.28213882446289 C 76.99216461181641 39.28472137451172 76.99213409423828 39.28609848022461 76.99208068847656 39.2886848449707 C 76.99195861816406 39.29469299316406 76.99183654785156 39.30074310302734 76.99171447753906 39.3067512512207 C 76.99171447753906 39.3067512512207 76.99169158935547 39.30774688720703 76.99169158935547 39.30774688720703 C 76.99156188964844 39.31421279907227 76.99143218994141 39.32040786743164 76.99129486083984 39.32686996459961 C 76.99127197265625 39.32816314697266 76.99119567871094 39.33149337768555 76.99117279052734 39.33278274536133 C 76.99106597900391 39.33777236938477 76.99095916748047 39.34272003173828 76.99085235595703 39.34770965576172 C 76.99079895019531 39.35029220581055 76.99079895019531 39.34997177124023 76.99074554443359 39.35255432128906 C 76.99060821533203 39.35890197753906 76.99047088623047 39.36503601074219 76.99033355712891 39.37138366699219 C 76.99027252197266 39.37396621704102 76.99027252197266 39.37417221069336 76.99021148681641 39.37675476074219 C 76.99010467529297 39.38151550292969 76.98999786376953 39.38630294799805 76.98989105224609 39.39106369018555 C 76.98983001708984 39.39364624023438 76.98980712890625 39.3947639465332 76.98974609375 39.39734649658203 C 76.98960876464844 39.40324020385742 76.98947143554688 39.40923309326172 76.98933410644531 39.41512298583984 C 76.98933410644531 39.41512298583984 76.98926544189453 39.41816329956055 76.98926544189453 39.41816329956055 C 76.98912811279297 39.42405319213867 76.98899078369141 39.42975234985352 76.98885345458984 39.43564224243164 C 76.98879241943359 39.43822479248047 76.98876953125 39.43903732299805 76.98870849609375 39.44161987304688 C 76.98858642578125 39.44660568237305 76.98847198486328 39.45144653320313 76.98834991455078 39.4564323425293 C 76.98828887939453 39.45901107788086 76.98829650878906 39.45858383178711 76.98823547363281 39.46116256713867 C 76.98808288574219 39.46750640869141 76.98792266845703 39.47396087646484 76.98776245117188 39.48030471801758 C 76.98773193359375 39.48159408569336 76.98768615722656 39.48338317871094 76.98765563964844 39.48467254638672 C 76.98751831054688 39.48988342285156 76.98738861083984 39.49517059326172 76.98725128173828 39.5003776550293 C 76.98722076416016 39.50167083740234 76.98715209960938 39.50445938110352 76.98712158203125 39.5057487487793 C 76.98695373535156 39.51208877563477 76.98679351806641 39.51847839355469 76.98662567138672 39.52481842041016 C 76.98658752441406 39.5261116027832 76.98660278320313 39.5257453918457 76.98656463623047 39.52703475952148 C 76.98641204833984 39.53281021118164 76.98626708984375 39.53827285766602 76.98611450195313 39.54404830932617 C 76.98604583740234 39.54662704467773 76.98601531982422 39.54773712158203 76.98594665527344 39.55031585693359 C 76.98580932617188 39.55541229248047 76.98567199707031 39.56049728393555 76.98553466796875 39.56558990478516 C 76.98550415039063 39.56687927246094 76.98545837402344 39.56840515136719 76.98542785644531 39.56969451904297 C 76.98525238037109 39.57603454589844 76.98507690429688 39.58230590820313 76.98490142822266 39.58864593505859 C 76.98487091064453 39.58993148803711 76.98478698730469 39.59294509887695 76.98474884033203 39.59423446655273 C 76.98461151123047 39.59910202026367 76.98448181152344 39.60380554199219 76.98434448242188 39.60867309570313 C 76.98430633544922 39.60996246337891 76.98422241210938 39.6129035949707 76.98418426513672 39.61419296264648 C 76.9840087890625 39.62053298950195 76.98382568359375 39.62674713134766 76.983642578125 39.63308334350586 C 76.98360443115234 39.63437271118164 76.98356628417969 39.6357307434082 76.98352813720703 39.63702011108398 C 76.98337554931641 39.64233779907227 76.98322296142578 39.64753723144531 76.98307037353516 39.65285491943359 C 76.98299407958984 39.65543365478516 76.98297882080078 39.65597915649414 76.98290252685547 39.65855407714844 C 76.98274230957031 39.66387176513672 76.98258972167969 39.66913986206055 76.98242950439453 39.67445755004883 C 76.98239135742188 39.67574310302734 76.98235321044922 39.67692947387695 76.98231506347656 39.67821884155273 C 76.98212432861328 39.68444061279297 76.98193359375 39.69083786010742 76.98174285888672 39.69705963134766 C 76.98170471191406 39.69834518432617 76.98160552978516 39.7016716003418 76.98155975341797 39.70296096801758 C 76.98142242431641 39.70748519897461 76.98127746582031 39.71210479736328 76.98114013671875 39.71662902832031 C 76.98110198974609 39.71791458129883 76.98097229003906 39.72194290161133 76.98093414306641 39.72323226928711 C 76.98073577880859 39.72956466674805 76.98054504394531 39.73569488525391 76.9803466796875 39.74202728271484 C 76.98030090332031 39.74331665039063 76.98030853271484 39.74303817749023 76.98027038574219 39.74432754516602 C 76.98009490966797 39.74998092651367 76.97991180419922 39.75553894042969 76.97972869873047 39.76119232177734 C 76.97965240478516 39.76376724243164 76.97962188720703 39.76469802856445 76.97953796386719 39.76727294921875 C 76.9793701171875 39.77236175537109 76.97920989990234 39.77743148803711 76.97904205322266 39.78251647949219 C 76.97899627685547 39.78380584716797 76.97894287109375 39.78559494018555 76.97889709472656 39.78688049316406 C 76.97869873046875 39.79298782348633 76.97850036621094 39.79901504516602 76.97829437255859 39.80511856079102 C 76.97824859619141 39.80640411376953 76.97809600830078 39.81098556518555 76.97805786132813 39.81227111816406 C 76.97791290283203 39.81645584106445 76.97776794433594 39.82074737548828 76.97763061523438 39.82493209838867 C 76.97758483886719 39.82621765136719 76.97744750976563 39.83024978637695 76.97740173339844 39.83153533935547 C 76.97719573974609 39.83763885498047 76.97698211669922 39.84386825561523 76.97677612304688 39.84997177124023 C 76.97673034667969 39.85126113891602 76.97666168212891 39.85317611694336 76.97661590576172 39.85446548461914 C 76.97644805908203 39.85943603515625 76.97627258300781 39.86447906494141 76.97609710693359 39.86944961547852 C 76.97600555419922 39.87202453613281 76.97595977783203 39.87341690063477 76.97586822509766 39.87599182128906 C 76.9757080078125 39.88062286376953 76.97554779052734 39.88518142700195 76.97537994384766 39.88981246948242 C 76.97528839111328 39.89238739013672 76.97526550292969 39.89303588867188 76.97517395019531 39.89560699462891 C 76.97496032714844 39.90159606933594 76.97474670410156 39.90764236450195 76.97452545166016 39.91363143920898 C 76.97447967529297 39.9149169921875 76.97434234619141 39.91873550415039 76.97429656982422 39.92002105712891 C 76.97413635253906 39.92453765869141 76.97396087646484 39.92919540405273 76.97380065917969 39.9337158203125 C 76.97374725341797 39.93500137329102 76.97361755371094 39.93856811523438 76.97357177734375 39.93985366821289 C 76.97334289550781 39.94606781005859 76.97311401367188 39.95223999023438 76.97288513183594 39.95845031738281 C 76.97283935546875 39.95973587036133 76.9727783203125 39.96133422851563 76.97273254394531 39.96261978149414 C 76.9725341796875 39.96781539916992 76.97235107421875 39.9727783203125 76.97215270996094 39.97797012329102 C 76.97205352783203 39.98054504394531 76.97202301025391 39.98131942749023 76.97193145751953 39.98389053344727 C 76.97171783447266 39.98942184448242 76.97150421142578 39.99502944946289 76.97129058837891 40.00056457519531 C 76.97124481201172 40.00185012817383 76.97123718261719 40.00205612182617 76.97118377685547 40.00334167480469 C 76.970947265625 40.00955200195313 76.97071075439453 40.01574325561523 76.97046661376953 40.02194976806641 C 76.97042083740234 40.02323532104492 76.97026062011719 40.02719497680664 76.97021484375 40.02848052978516 C 76.97003936767578 40.03299713134766 76.96985626220703 40.03761672973633 76.96968078613281 40.04212951660156 C 76.96962738037109 40.04341506958008 76.96949768066406 40.04670715332031 76.96944427490234 40.04799270629883 C 76.96920776367188 40.0540885925293 76.96896362304688 40.0601806640625 76.96871948242188 40.0662727355957 C 76.96862030029297 40.06884384155273 76.96857452392578 40.06985473632813 76.96847534179688 40.07242584228516 C 76.96829223632813 40.07682800292969 76.96811676025391 40.08124923706055 76.96794128417969 40.08565139770508 C 76.96783447265625 40.08821868896484 76.96775817871094 40.09003829956055 76.96765899658203 40.09260940551758 C 76.96744537353516 40.09779739379883 76.96723175048828 40.10305023193359 76.96701812744141 40.10824203491211 C 76.96696472167969 40.10952758789063 76.96690368652344 40.11095809936523 76.96685028076172 40.11224365234375 C 76.96660614013672 40.11822509765625 76.96636199951172 40.12405014038086 76.96611785888672 40.13002777099609 C 76.96601104736328 40.13259887695313 76.9659423828125 40.1342887878418 76.96582794189453 40.13685989379883 C 76.96564483642578 40.14125823974609 76.96546936035156 40.14554977416992 76.96527862548828 40.14994812011719 C 76.96517181396484 40.15251541137695 76.96511840820313 40.15385437011719 76.96501159667969 40.15642166137695 C 76.96475219726563 40.16251373291016 76.96449279785156 40.16857147216797 76.9642333984375 40.17465972900391 C 76.96411895751953 40.17723083496094 76.96410369873047 40.17764663696289 76.96399688720703 40.18021774291992 C 76.96379852294922 40.18472671508789 76.96360778808594 40.18915939331055 76.96341705322266 40.19367218017578 C 76.96330261230469 40.19623947143555 76.96321105957031 40.19838714599609 76.96309661865234 40.20095443725586 C 76.96286010742188 40.20636749267578 76.96263885498047 40.21152114868164 76.96240234375 40.2169303894043 C 76.96234130859375 40.21821594238281 76.96225738525391 40.22015380859375 76.96220397949219 40.22143936157227 C 76.96195983886719 40.22696304321289 76.96170806884766 40.23255920410156 76.96146392822266 40.23808288574219 C 76.96134948730469 40.24065017700195 76.96125793457031 40.24271392822266 76.96114349365234 40.24528121948242 C 76.96095275878906 40.24956512451172 76.96076965332031 40.25360488891602 76.96057891845703 40.25788879394531 C 76.96046447753906 40.26045608520508 76.96039581298828 40.26202774047852 76.96028137207031 40.26459503173828 C 76.96001434326172 40.27045440673828 76.95973968505859 40.27657699584961 76.95947265625 40.28243637084961 C 76.9593505859375 40.28500366210938 76.95929718017578 40.2861442565918 76.95918273925781 40.28871154785156 C 76.958984375 40.29310607910156 76.95877075195313 40.29767990112305 76.95857238769531 40.30207443237305 C 76.95845031738281 40.30464172363281 76.9583740234375 40.306396484375 76.958251953125 40.30896377563477 C 76.95802307128906 40.31391906738281 76.95778656005859 40.31903076171875 76.95755767822266 40.32398986816406 C 76.95743560791016 40.32655715942383 76.95731353759766 40.32910919189453 76.95719146728516 40.33167266845703 C 76.95697021484375 40.33651733398438 76.95673370361328 40.3414306640625 76.95650482177734 40.34627532958984 C 76.95639038085938 40.34883880615234 76.95632171630859 40.35019302368164 76.95619964599609 40.35276031494141 C 76.95597076416016 40.35760116577148 76.95574951171875 40.36228179931641 76.95552062988281 40.36712646484375 C 76.95539855957031 40.36968994140625 76.95539855957031 40.36968612670898 76.95527648925781 40.37224960327148 C 76.95497894287109 40.37833023071289 76.95468139648438 40.38454437255859 76.95439147949219 40.39062881469727 C 76.95426177978516 40.39319229125977 76.95421600341797 40.39426040649414 76.95408630371094 40.39682388305664 C 76.95388031005859 40.40110397338867 76.95366668701172 40.40552520751953 76.95345306396484 40.40980529785156 C 76.95333099365234 40.41236877441406 76.95323181152344 40.41435241699219 76.95310974121094 40.41691589355469 C 76.95281219482422 40.42299652099609 76.9525146484375 40.4290885925293 76.95220947265625 40.43516540527344 C 76.9521484375 40.43644714355469 76.95211791992188 40.43708038330078 76.95204925537109 40.43836212158203 C 76.95178985595703 40.44365310668945 76.95152282714844 40.44904327392578 76.95125579833984 40.45433044433594 C 76.95112609863281 40.4568977355957 76.95106506347656 40.45808792114258 76.95094299316406 40.46065139770508 C 76.95067596435547 40.4659423828125 76.95040130615234 40.4714241027832 76.95013427734375 40.47671508789063 C 76.95006561279297 40.47799682617188 76.95005035400391 40.47835159301758 76.94998168945313 40.47963333129883 C 76.94966125488281 40.48593521118164 76.9493408203125 40.49234771728516 76.94901275634766 40.4986457824707 C 76.94895172119141 40.49992752075195 76.94877624511719 40.50325775146484 76.94871520996094 40.50453948974609 C 76.94847869873047 40.5091552734375 76.9482421875 40.51369094848633 76.94800567626953 40.51830291748047 C 76.94793701171875 40.51958465576172 76.94774627685547 40.52331924438477 76.94767761230469 40.52459716796875 C 76.94735717773438 40.53078842163086 76.94704437255859 40.53679656982422 76.94672393798828 40.54298400878906 C 76.9466552734375 40.54426193237305 76.94655609130859 40.54619216918945 76.94648742675781 40.5474739074707 C 76.94624328613281 40.55220031738281 76.94599151611328 40.55690383911133 76.94573974609375 40.56162643432617 C 76.94561004638672 40.56418991088867 76.94546508789063 40.56694412231445 76.94532775878906 40.56950759887695 C 76.94512176513672 40.57344436645508 76.94491577148438 40.5772819519043 76.9447021484375 40.58121871948242 C 76.94456481933594 40.58377838134766 76.94444274902344 40.58610534667969 76.94430541992188 40.58866882324219 C 76.94399261474609 40.59451675415039 76.94367218017578 40.6004753112793 76.943359375 40.60631942749023 C 76.94329071044922 40.60760116577148 76.94307708740234 40.61151885986328 76.94300842285156 40.61280059814453 C 76.94278717041016 40.61695861816406 76.94254302978516 40.62141799926758 76.94231414794922 40.62557983398438 C 76.94224548339844 40.62685775756836 76.94198608398438 40.63159942626953 76.94191741943359 40.63288116455078 C 76.94159698486328 40.63872528076172 76.9412841796875 40.64450836181641 76.94096374511719 40.65035247802734 C 76.94081878662109 40.65291213989258 76.94075775146484 40.654052734375 76.94061279296875 40.65661239624023 C 76.94038391113281 40.66077041625977 76.94013977050781 40.66522598266602 76.93991088867188 40.66938781738281 C 76.93976593017578 40.67194747924805 76.93960571289063 40.67477035522461 76.93946838378906 40.67733001708984 C 76.93922424316406 40.68160247802734 76.93898010253906 40.68605041503906 76.93873596191406 40.6903190612793 C 76.9385986328125 40.69287872314453 76.93856048583984 40.69348907470703 76.93841552734375 40.69604873657227 C 76.93807983398438 40.70200347900391 76.93775177001953 40.70783233642578 76.93741607666016 40.71378707885742 C 76.93733978271484 40.71506500244141 76.93708038330078 40.71965789794922 76.93701171875 40.7209358215332 C 76.936767578125 40.7252082824707 76.93653869628906 40.7292366027832 76.93629455566406 40.73350524902344 C 76.93614959716797 40.73606491088867 76.93603515625 40.73805618286133 76.93588256835938 40.74061584472656 C 76.93556213378906 40.74623489379883 76.93523406982422 40.75189208984375 76.93491363525391 40.75751113891602 C 76.93476867675781 40.76006698608398 76.93458557128906 40.76309585571289 76.93444061279297 40.76565170288086 C 76.93422698974609 40.76935958862305 76.93399810791016 40.77323150634766 76.93378448486328 40.77693939208984 C 76.93363189697266 40.77949523925781 76.93346405029297 40.78241729736328 76.93331146240234 40.78497314453125 C 76.93307495117188 40.78901672363281 76.93284606933594 40.79300308227539 76.93260955810547 40.79704666137695 C 76.93238067626953 40.80088424682617 76.93223571777344 40.80327606201172 76.93201446533203 40.80710983276367 C 76.93173980712891 40.81171417236328 76.93145751953125 40.81646347045898 76.93118286132813 40.82106781005859 C 76.93095397949219 40.82490539550781 76.93091583251953 40.82562637329102 76.93068695068359 40.82946014404297 C 76.93046569824219 40.83316802978516 76.93025207519531 40.83668899536133 76.93003082275391 40.84039306640625 C 76.92987823486328 40.84295272827148 76.92970275878906 40.84586334228516 76.92955017089844 40.84841918945313 C 76.92921447753906 40.85403060913086 76.92885589599609 40.85988235473633 76.92852020263672 40.86549377441406 C 76.92835998535156 40.8680534362793 76.92818450927734 40.87095260620117 76.92803192138672 40.87350845336914 C 76.92781829833984 40.87698745727539 76.92760467529297 40.88046646118164 76.92739868164063 40.88394546508789 C 76.92723846435547 40.88650131225586 76.92697906494141 40.89076995849609 76.92681884765625 40.89332580566406 C 76.92659759521484 40.89702987670898 76.92636871337891 40.90074920654297 76.92613983154297 40.90445327758789 C 76.9259033203125 40.90828704833984 76.92568206787109 40.91184616088867 76.92544555664063 40.91567993164063 C 76.92518615722656 40.91983032226563 76.92493438720703 40.92393493652344 76.92467498779297 40.9280891418457 C 76.9244384765625 40.93192291259766 76.92430877685547 40.93392562866211 76.924072265625 40.93775939941406 C 76.92386627197266 40.94101333618164 76.92365264892578 40.94442749023438 76.92344665527344 40.94767761230469 C 76.92328643798828 40.95023345947266 76.92308044433594 40.95357131958008 76.92292022705078 40.95612716674805 C 76.92256164550781 40.96173858642578 76.92220306396484 40.96752548217773 76.92184448242188 40.9731330871582 C 76.92168426513672 40.97568893432617 76.92149353027344 40.97859191894531 76.92133331298828 40.98114395141602 C 76.92111206054688 40.98462295532227 76.92088317871094 40.98820495605469 76.92066192626953 40.99168014526367 C 76.92050170898438 40.99423599243164 76.92025756835938 40.99805068969727 76.92008972167969 41.00060653686523 C 76.91986083984375 41.00419235229492 76.91962432861328 41.00785064697266 76.91939544677734 41.01144027709961 C 76.9190673828125 41.01654815673828 76.91888427734375 41.0193977355957 76.91855621337891 41.02450180053711 C 76.91829681396484 41.02842712402344 76.91805267333984 41.03226852416992 76.91779327392578 41.03619003295898 C 76.91762542724609 41.03874588012695 76.91740417480469 41.04214096069336 76.91724395751953 41.04469299316406 C 76.91701507568359 41.04816818237305 76.91678619384766 41.0516357421875 76.91655731201172 41.05511093139648 C 76.91638946533203 41.05766296386719 76.91615295410156 41.06129837036133 76.91598510742188 41.0638542175293 C 76.91563415527344 41.06923294067383 76.91526794433594 41.07473754882813 76.9149169921875 41.08011627197266 C 76.91465759277344 41.08394622802734 76.91454315185547 41.08573150634766 76.91428375244141 41.08956146240234 C 76.91408538818359 41.09258651733398 76.91389465332031 41.09543609619141 76.9136962890625 41.09846115112305 C 76.91343688964844 41.10228729248047 76.91325378417969 41.10507965087891 76.91299438476563 41.10890579223633 C 76.91281890869141 41.11159515380859 76.91262817382813 41.11444473266602 76.91244506835938 41.11713409423828 C 76.91210174560547 41.12223815917969 76.91162109375 41.12935256958008 76.91127777099609 41.13445663452148 C 76.91109466552734 41.13714218139648 76.91091156005859 41.13990020751953 76.91072845458984 41.14258575439453 C 76.91046905517578 41.14641571044922 76.91026306152344 41.14946365356445 76.91000366210938 41.15329360961914 C 76.90982818603516 41.15586853027344 76.90964508056641 41.15851593017578 76.90946960449219 41.16109085083008 C 76.90859985351563 41.17384719848633 76.90782928466797 41.18505859375 76.90694427490234 41.19781494140625 C 76.90676116943359 41.20050048828125 76.90657043457031 41.20320129394531 76.90638732910156 41.20589065551758 C 76.90612030029297 41.209716796875 76.90596771240234 41.21195602416992 76.90570068359375 41.21578216552734 C 76.90549468994141 41.21869277954102 76.90528869628906 41.22168350219727 76.90508270263672 41.22459411621094 C 76.90464019775391 41.23097229003906 76.90425872802734 41.23635864257813 76.90380859375 41.24273300170898 C 76.90364074707031 41.24508666992188 76.90347290039063 41.24750518798828 76.90330505371094 41.24985885620117 C 76.90303802490234 41.25368118286133 76.90278625488281 41.25729370117188 76.90251159667969 41.26111602783203 C 76.90236663818359 41.26313400268555 76.90221405029297 41.26526260375977 76.90207672119141 41.26727676391602 C 76.90144348144531 41.27620315551758 76.90084838867188 41.28453826904297 76.90020751953125 41.29346084594727 C 76.90019226074219 41.29368209838867 76.90017700195313 41.29388046264648 76.90016174316406 41.29410552978516 C 76.89988708496094 41.29792785644531 76.89962005615234 41.30158996582031 76.89934539794922 41.30541229248047 C 76.89917755126953 41.30776214599609 76.89900970458984 41.31007766723633 76.89884185791016 41.31242752075195 C 76.89856719970703 41.31624984741211 76.89828491210938 41.32014465332031 76.89801025390625 41.32396697998047 C 76.89788055419922 41.32575607299805 76.89775085449219 41.32744598388672 76.89762115478516 41.32923889160156 C 76.89707183837891 41.33688354492188 76.8966064453125 41.34326171875 76.89604187011719 41.35090637207031 C 76.89590454101563 41.35280990600586 76.89577484130859 41.3546142578125 76.8956298828125 41.35651779174805 C 76.895263671875 41.36161041259766 76.89511871337891 41.36355972290039 76.89474487304688 41.36865615844727 C 76.89459991455078 41.37055587768555 76.89447021484375 41.372314453125 76.89433288574219 41.37421417236328 C 76.89376831054688 41.38185882568359 76.89311218261719 41.39065170288086 76.89254760742188 41.39829635620117 C 76.89246368408203 41.3994140625 76.89240264892578 41.40021133422852 76.89231872558594 41.40132904052734 C 76.89203643798828 41.4051513671875 76.89173126220703 41.40918350219727 76.89144897460938 41.41300582885742 C 76.89128875732422 41.41513061523438 76.89112854003906 41.41726684570313 76.89096832275391 41.41939163208008 C 76.89068603515625 41.42321014404297 76.890380859375 41.4272346496582 76.89009857177734 41.43105316162109 C 76.88999176025391 41.43239593505859 76.889892578125 41.43374252319336 76.88979339599609 41.43508148193359 C 76.88921356201172 41.44272232055664 76.88861083984375 41.45069885253906 76.88803100585938 41.45833969116211 C 76.88788604736328 41.46023941040039 76.88775634765625 41.46190643310547 76.88761138916016 41.46380996704102 C 76.88722991943359 41.46889877319336 76.8870849609375 41.47072982788086 76.88669586181641 41.47582244873047 C 76.88657379150391 41.47749710083008 76.88643646240234 41.47924041748047 76.88630676269531 41.48091506958008 C 76.88533020019531 41.49364471435547 76.88420104980469 41.50832748413086 76.88321685791016 41.52104949951172 C 76.88310241699219 41.52250289916992 76.88298797607422 41.52398681640625 76.88287353515625 41.52544021606445 C 76.88178253173828 41.53943634033203 76.88070678710938 41.55319976806641 76.87960815429688 41.56719207763672 C 76.87953186035156 41.56808471679688 76.87945556640625 41.56904602050781 76.87938690185547 41.56993865966797 C 76.87899017333984 41.57502746582031 76.87873077392578 41.5782585144043 76.87832641601563 41.58334732055664 C 76.87824249267578 41.58446502685547 76.87815093994141 41.58560180664063 76.87805938720703 41.58671569824219 C 76.876953125 41.6007080078125 76.87580108642578 41.61507415771484 76.87467956542969 41.62905883789063 C 76.87461853027344 41.62984085083008 76.87455749511719 41.63052749633789 76.87449645996094 41.63130950927734 C 76.87326812744141 41.64656448364258 76.87226867675781 41.65896606445313 76.87101745605469 41.67421722412109 C 76.87095642089844 41.67499923706055 76.87087249755859 41.67599868774414 76.87081146240234 41.67678070068359 C 76.87039947509766 41.68186569213867 76.87008666992188 41.68568420410156 76.86966705322266 41.69076538085938 C 76.86962127685547 41.69132614135742 76.86959075927734 41.69168090820313 76.86954498291016 41.69223785400391 C 76.86829376220703 41.70748901367188 76.86720275878906 41.72067260742188 76.86593627929688 41.73591613769531 C 76.86588287353516 41.73658752441406 76.86582183837891 41.73731994628906 76.86576080322266 41.73798751831055 C 76.86280059814453 41.7735595703125 76.85991668701172 41.80764007568359 76.85685729980469 41.84318542480469 C 76.85684204101563 41.84340667724609 76.85679626464844 41.84387588500977 76.85678100585938 41.84409713745117 C 76.79441833496094 42.56897735595703 76.71218109130859 43.28646469116211 76.61020660400391 43.99930191040039 L 64.73108673095703 42.30034637451172 C 64.90860748291016 41.05915069580078 65 39.790283203125 65 38.5 C 65 23.88784790039063 53.11215209960938 12 38.5 12 L 38.5 0 C 38.5 0 38.5 0 38.5 0 Z M 38.5 0 L 38.5 12 C 23.88784790039063 12 12 23.88784790039063 12 38.5 C 12 39.53841400146484 12.05917358398438 40.5629768371582 12.17485046386719 41.57041168212891 L 0.2531509399414063 42.9390869140625 C 0.1695556640625 42.21091461181641 0.1062774658203125 41.4766731262207 0.0638885498046875 40.73672485351563 C 0.06381988525390625 40.73544311523438 0.06391143798828125 40.73711395263672 0.0638427734375 40.73583221435547 C 0.0635223388671875 40.73023223876953 0.063201904296875 40.72465133666992 0.0628814697265625 40.71905136108398 C 0.0628814697265625 40.71905136108398 0.06287384033203125 40.71895217895508 0.06287384033203125 40.71895217895508 C 0.0625457763671875 40.71316909790039 0.062225341796875 40.70746994018555 0.06189727783203125 40.70168685913086 C 0.06189727783203125 40.70168685913086 0.06189727783203125 40.70163345336914 0.06189727783203125 40.70163345336914 C 0.0599517822265625 40.6671142578125 0.05805206298828125 40.63262939453125 0.0561981201171875 40.59809112548828 C 0.0561981201171875 40.59809112548828 0.05612945556640625 40.59678649902344 0.05612945556640625 40.59678649902344 C 0.05583953857421875 40.59145355224609 0.05554962158203125 40.58597946166992 0.055267333984375 40.58064270019531 C 0.055267333984375 40.58064270019531 0.0552215576171875 40.57976531982422 0.0552215576171875 40.57976531982422 C 0.05492401123046875 40.57424926757813 0.0546417236328125 40.5689811706543 0.054351806640625 40.5634651184082 C 0.054351806640625 40.5634651184082 0.05429840087890625 40.56246185302734 0.05429840087890625 40.56246185302734 C 0.052490234375 40.52818298339844 0.0507354736328125 40.49403762817383 0.04901123046875 40.45973587036133 C 0.04901123046875 40.45973587036133 0.04888916015625 40.45721054077148 0.04888916015625 40.45721054077148 C 0.04863739013671875 40.45214080810547 0.04837799072265625 40.44705963134766 0.048126220703125 40.44199371337891 C 0.048065185546875 40.44071197509766 0.048126220703125 40.44192504882813 0.048065185546875 40.44064331054688 C 0.04779052734375 40.43521499633789 0.0475311279296875 40.42985534667969 0.0472564697265625 40.42442321777344 C 0.0472564697265625 40.42442321777344 0.04721832275390625 40.42355728149414 0.04721832275390625 40.42355728149414 C 0.04608917236328125 40.40056228637695 0.04497528076171875 40.37754058837891 0.04388427734375 40.35453414916992 C 0.04388427734375 40.35453414916992 0.0438385009765625 40.35354232788086 0.0438385009765625 40.35354232788086 C 0.0435943603515625 40.3483772277832 0.04334259033203125 40.3431396484375 0.04309844970703125 40.33797454833984 C 0.04303741455078125 40.33669281005859 0.04302215576171875 40.33633041381836 0.04296112060546875 40.33504867553711 C 0.042755126953125 40.33060836791992 0.04254913330078125 40.32613754272461 0.0423431396484375 40.32170104980469 C 0.0422210693359375 40.31913375854492 0.04225921630859375 40.31990432739258 0.04213714599609375 40.31733703613281 C 0.04193115234375 40.31290054321289 0.041717529296875 40.30831527709961 0.04151153564453125 40.30387878417969 C 0.04145050048828125 40.30259323120117 0.04144287109375 40.30238342285156 0.0413818359375 40.30110168457031 C 0.04116058349609375 40.29620742797852 0.040924072265625 40.29110717773438 0.04070281982421875 40.28621292114258 C 0.04070281982421875 40.28621292114258 0.0406036376953125 40.28410720825195 0.0406036376953125 40.28410720825195 C 0.0395660400390625 40.2613639831543 0.0385589599609375 40.23876953125 0.03755950927734375 40.21601867675781 C 0.037506103515625 40.2147331237793 0.03748321533203125 40.21420669555664 0.03742218017578125 40.21292495727539 C 0.0372314453125 40.20848083496094 0.0370330810546875 40.20392608642578 0.03684234619140625 40.19948196411133 C 0.03678131103515625 40.19820022583008 0.03670501708984375 40.19636917114258 0.036651611328125 40.19508361816406 C 0.03647613525390625 40.19118499755859 0.0363006591796875 40.18714141845703 0.0361328125 40.1832389831543 C 0.0360260009765625 40.18067169189453 0.0360107421875 40.18038177490234 0.0359039306640625 40.17781448364258 C 0.03572845458984375 40.17373657226563 0.035552978515625 40.16961669921875 0.03537750244140625 40.16553497314453 C 0.0353240966796875 40.16425323486328 0.0352630615234375 40.16278839111328 0.03520965576171875 40.16150283813477 C 0.03501129150390625 40.15687942504883 0.034820556640625 40.15236282348633 0.0346221923828125 40.14773559570313 C 0.0346221923828125 40.14773559570313 0.0345001220703125 40.14477157592773 0.0345001220703125 40.14477157592773 C 0.033782958984375 40.12771987915039 0.0330810546875 40.11075973510742 0.03238677978515625 40.09370040893555 C 0.03238677978515625 40.09370040893555 0.03229522705078125 40.09136581420898 0.03229522705078125 40.09136581420898 C 0.0321044921875 40.08673858642578 0.03191375732421875 40.08211517333984 0.03173065185546875 40.07748794555664 C 0.03167724609375 40.07620239257813 0.031585693359375 40.07393264770508 0.0315399169921875 40.07264709472656 C 0.0313720703125 40.06865692138672 0.0312042236328125 40.06445693969727 0.0310516357421875 40.06046295166016 C 0.03099822998046875 40.05917739868164 0.030914306640625 40.0571174621582 0.03086090087890625 40.05583190917969 C 0.03070831298828125 40.05192947387695 0.03055572509765625 40.04806137084961 0.03040313720703125 40.04415893554688 C 0.0303497314453125 40.04287338256836 0.0302276611328125 40.03972625732422 0.03017425537109375 40.0384407043457 C 0.03002166748046875 40.03444671630859 0.02986907958984375 40.03050231933594 0.0297088623046875 40.02650833129883 C 0.0296630859375 40.02522277832031 0.02959442138671875 40.0235595703125 0.029541015625 40.02227401733398 C 0.02935791015625 40.01737213134766 0.0291595458984375 40.01238250732422 0.02896881103515625 40.00748062133789 C 0.02896881103515625 40.00748062133789 0.02890777587890625 40.00575637817383 0.02890777587890625 40.00575637817383 C 0.02846527099609375 39.99422836303711 0.02802276611328125 39.98275375366211 0.02759552001953125 39.97122573852539 C 0.02759552001953125 39.97122573852539 0.027587890625 39.97116851806641 0.027587890625 39.97116851806641 C 0.02738189697265625 39.96562957763672 0.0271759033203125 39.9600715637207 0.02696990966796875 39.95453262329102 C 0.02692413330078125 39.9532470703125 0.0269012451171875 39.95272445678711 0.02685546875 39.95143508911133 C 0.02669525146484375 39.94717025756836 0.02652740478515625 39.94265747070313 0.02637481689453125 39.93838882446289 C 0.02632904052734375 39.93710327148438 0.02622222900390625 39.934326171875 0.02617645263671875 39.93304061889648 C 0.026031494140625 39.92913436889648 0.0258941650390625 39.92535781860352 0.0257568359375 39.92145156860352 C 0.025665283203125 39.91888046264648 0.02565765380859375 39.91877365112305 0.02556610107421875 39.91620254516602 C 0.02542877197265625 39.9124755859375 0.025299072265625 39.90884399414063 0.02516937255859375 39.90511703491211 C 0.025115966796875 39.90383148193359 0.024993896484375 39.9003791809082 0.0249481201171875 39.89908981323242 C 0.024810791015625 39.89518356323242 0.02466583251953125 39.89106750488281 0.02452850341796875 39.88716125488281 C 0.02448272705078125 39.8858757019043 0.02442169189453125 39.88418579101563 0.02437591552734375 39.88290023803711 C 0.02420806884765625 39.87817764282227 0.0240478515625 39.87358474731445 0.0238800048828125 39.86886215209961 C 0.023834228515625 39.86757659912109 0.023834228515625 39.8674201965332 0.0237884521484375 39.86613082885742 C 0.02339935302734375 39.85495758056641 0.02301025390625 39.84366989135742 0.0226287841796875 39.83249282836914 C 0.0225372314453125 39.82991790771484 0.02256011962890625 39.83053970336914 0.0224761962890625 39.82796478271484 C 0.0223388671875 39.82396697998047 0.0222015380859375 39.81984710693359 0.022064208984375 39.81584548950195 C 0.0220184326171875 39.81455993652344 0.02193450927734375 39.81193923950195 0.02188873291015625 39.81064987182617 C 0.02176666259765625 39.80683135986328 0.021636962890625 39.80294418334961 0.02150726318359375 39.79912567138672 C 0.02146148681640625 39.79783630371094 0.0213623046875 39.7946891784668 0.0213165283203125 39.79339981079102 C 0.0211944580078125 39.7896728515625 0.0210723876953125 39.78594207763672 0.0209503173828125 39.7822151184082 C 0.02086639404296875 39.77964019775391 0.0208587646484375 39.77931976318359 0.02077484130859375 39.7767448425293 C 0.02065277099609375 39.77301406860352 0.02053070068359375 39.76944732666016 0.020416259765625 39.76572036743164 C 0.0203704833984375 39.76443481445313 0.02025604248046875 39.76094055175781 0.0202178955078125 39.75965118408203 C 0.02008819580078125 39.75556182861328 0.01995849609375 39.75143814086914 0.0198211669921875 39.74734497070313 C 0.01978302001953125 39.74605941772461 0.019744873046875 39.7448844909668 0.01970672607421875 39.74359512329102 C 0.01955413818359375 39.73877716064453 0.01940155029296875 39.73407745361328 0.019256591796875 39.72925567626953 C 0.0192108154296875 39.72797012329102 0.0192108154296875 39.72782897949219 0.0191650390625 39.72654342651367 C 0.01882171630859375 39.71553802490234 0.0184783935546875 39.70430374145508 0.0181427001953125 39.69329833984375 C 0.01806640625 39.69072341918945 0.0180511474609375 39.69027328491211 0.017974853515625 39.68769836425781 C 0.01786041259765625 39.68396759033203 0.0177459716796875 39.68011093139648 0.01763153076171875 39.6763801574707 C 0.0175933837890625 39.67509460449219 0.0175018310546875 39.67206954956055 0.01746368408203125 39.67078018188477 C 0.01735687255859375 39.66723251342773 0.01725006103515625 39.66361999511719 0.01714324951171875 39.66007232666016 C 0.01706695556640625 39.65749740600586 0.01702117919921875 39.65592575073242 0.01694488525390625 39.65335083007813 C 0.016845703125 39.64998245239258 0.01674652099609375 39.64662170410156 0.0166473388671875 39.64325714111328 C 0.01657867431640625 39.64067840576172 0.01653289794921875 39.63920974731445 0.01645660400390625 39.63663101196289 C 0.01636505126953125 39.63344955444336 0.01627349853515625 39.63016128540039 0.01618194580078125 39.62697601318359 C 0.016143798828125 39.62569046020508 0.01601409912109375 39.62125015258789 0.0159759521484375 39.61996078491211 C 0.01587677001953125 39.6163215637207 0.015777587890625 39.61280822753906 0.0156707763671875 39.60916900634766 C 0.01560211181640625 39.60659027099609 0.0155792236328125 39.60600280761719 0.01551055908203125 39.60342788696289 C 0.01538848876953125 39.59905624389648 0.01526641845703125 39.59469604492188 0.01514434814453125 39.59032440185547 C 0.015106201171875 39.58903503417969 0.01508331298828125 39.58818817138672 0.015045166015625 39.58689880371094 C 0.014892578125 39.58125305175781 0.014739990234375 39.57568740844727 0.01457977294921875 39.57004165649414 C 0.01454925537109375 39.56875228881836 0.014556884765625 39.56896591186523 0.01451873779296875 39.56767654418945 C 0.01439666748046875 39.56303405761719 0.01425933837890625 39.55817413330078 0.01413726806640625 39.55353164672852 C 0.01409912109375 39.55224227905273 0.0140380859375 39.54991912841797 0.014007568359375 39.54862976074219 C 0.01389312744140625 39.54452896118164 0.01378631591796875 39.54054641723633 0.01367950439453125 39.53644561767578 C 0.01364898681640625 39.53515625 0.0135955810546875 39.53310775756836 0.01355743408203125 39.53181838989258 C 0.013458251953125 39.52790451049805 0.0133514404296875 39.52386093139648 0.01325225830078125 39.51994323730469 C 0.01318359375 39.51736450195313 0.0131683349609375 39.51682281494141 0.01309967041015625 39.51424407958984 C 0.01300811767578125 39.5105094909668 0.012908935546875 39.5067138671875 0.01280975341796875 39.50297927856445 C 0.01277923583984375 39.50168991088867 0.0127105712890625 39.49906158447266 0.0126800537109375 39.49777221679688 C 0.01258087158203125 39.49385452270508 0.012481689453125 39.4901123046875 0.01238250732421875 39.4861946105957 C 0.01235198974609375 39.48490524291992 0.01227569580078125 39.48183059692383 0.01224517822265625 39.48054122924805 C 0.0121307373046875 39.47607803344727 0.01202392578125 39.47175979614258 0.0119171142578125 39.4672966003418 C 0.0118865966796875 39.46600723266602 0.011871337890625 39.46566009521484 0.0118408203125 39.4643669128418 C 0.01171112060546875 39.45899200439453 0.0115814208984375 39.45361328125 0.01145172119140625 39.44823837280273 C 0.01145172119140625 39.44823837280273 0.01142120361328125 39.44709396362305 0.01142120361328125 39.44709396362305 C 0.01128387451171875 39.44153594970703 0.0111541748046875 39.43581008911133 0.011016845703125 39.43025207519531 C 0.010986328125 39.42895889282227 0.010986328125 39.42873001098633 0.010955810546875 39.42743682861328 C 0.0108489990234375 39.4229736328125 0.0107421875 39.41856002807617 0.01064300537109375 39.41409301757813 C 0.01061248779296875 39.41280364990234 0.01053619384765625 39.40950393676758 0.01050567626953125 39.40821075439453 C 0.01041412353515625 39.40447616577148 0.0103302001953125 39.40065765380859 0.01024627685546875 39.39691925048828 C 0.01021575927734375 39.3956298828125 0.01015472412109375 39.39302825927734 0.01012420654296875 39.39173889160156 C 0.010040283203125 39.38790893554688 0.00995635986328125 39.38414001464844 0.00986480712890625 39.38031387329102 C 0.0098114013671875 39.37773132324219 0.009796142578125 39.3770637512207 0.009735107421875 39.37448120117188 C 0.00965118408203125 39.37074661254883 0.00957489013671875 39.36711120605469 0.009490966796875 39.36337661743164 C 0.00946044921875 39.36208343505859 0.00939178466796875 39.35898208618164 0.009368896484375 39.35769271850586 C 0.00928497314453125 39.3541374206543 0.00920867919921875 39.35049819946289 0.00913238525390625 39.34694290161133 C 0.0090789794921875 39.3443603515625 0.00905609130859375 39.3432502746582 0.00899505615234375 39.34066772460938 C 0.0089111328125 39.33647537231445 0.008819580078125 39.33218765258789 0.00872802734375 39.3279914855957 C 0.008697509765625 39.32670211791992 0.00867462158203125 39.32566070556641 0.0086517333984375 39.32436752319336 C 0.00841522216796875 39.31315612792969 0.00818634033203125 39.30193328857422 0.00795745849609375 39.29071807861328 C 0.007904052734375 39.28813552856445 0.00791168212890625 39.28836059570313 0.0078582763671875 39.2857780456543 C 0.007781982421875 39.28203964233398 0.00771331787109375 39.27836608886719 0.00763702392578125 39.27462768554688 C 0.0076141357421875 39.27333450317383 0.0075225830078125 39.26856994628906 0.0074920654296875 39.26727676391602 C 0.0074310302734375 39.26399230957031 0.0073699951171875 39.26094818115234 0.0073089599609375 39.25766372680664 C 0.00725555419921875 39.25508117675781 0.00724029541015625 39.25411224365234 0.0071868896484375 39.25152969360352 C 0.00711822509765625 39.24778747558594 0.007049560546875 39.24402618408203 0.0069732666015625 39.24028396606445 C 0.006927490234375 39.23770141601563 0.00691986083984375 39.23726654052734 0.00687408447265625 39.23468017578125 C 0.006805419921875 39.23103332519531 0.00673675537109375 39.22734451293945 0.0066680908203125 39.22369766235352 C 0.00664520263671875 39.22240447998047 0.0065765380859375 39.21889114379883 0.00655364990234375 39.21759796142578 C 0.00649261474609375 39.21440505981445 0.006439208984375 39.21122360229492 0.006378173828125 39.20803070068359 C 0.0063323974609375 39.2054443359375 0.00628662109375 39.20294570922852 0.0062408447265625 39.20036315917969 C 0.00616455078125 39.1961669921875 0.00609588623046875 39.19205474853516 0.00601959228515625 39.18785858154297 C 0.0059967041015625 39.18656539916992 0.00598907470703125 39.185791015625 0.0059661865234375 39.18450164794922 C 0.00586700439453125 39.17893218994141 0.005767822265625 39.17320251464844 0.00567626953125 39.16763305664063 C 0.00565338134765625 39.16633987426758 0.00563812255859375 39.16561508178711 0.005615234375 39.16432189941406 C 0.0055389404296875 39.15985107421875 0.005462646484375 39.1553840637207 0.00539398193359375 39.15090942382813 C 0.00534820556640625 39.1483268737793 0.005340576171875 39.14777374267578 0.0052947998046875 39.14518737792969 C 0.00524139404296875 39.14162826538086 0.00518798828125 39.13827514648438 0.005126953125 39.13471603393555 C 0.00510406494140625 39.1334228515625 0.005035400390625 39.12920761108398 0.0050201416015625 39.1279182434082 C 0.0049591064453125 39.12444686889648 0.00490570068359375 39.12087249755859 0.004852294921875 39.11740112304688 C 0.00481414794921875 39.11481475830078 0.00479888916015625 39.11384582519531 0.00475311279296875 39.11125946044922 C 0.00469970703125 39.10788345336914 0.0046539306640625 39.10467910766602 0.00460052490234375 39.10130310058594 C 0.0045623779296875 39.09871673583984 0.00452423095703125 39.09641265869141 0.004486083984375 39.09382629394531 C 0.00444793701171875 39.09099578857422 0.00440216064453125 39.08806610107422 0.00435638427734375 39.08523559570313 C 0.004302978515625 39.08135604858398 0.00429534912109375 39.08078384399414 0.00423431396484375 39.076904296875 C 0.0041961669921875 39.07425689697266 0.00415802001953125 39.07144165039063 0.004119873046875 39.06879425048828 C 0.00408172607421875 39.06620788574219 0.00403594970703125 39.06325149536133 0.003997802734375 39.06066131591797 C 0.003936767578125 39.05600357055664 0.00386810302734375 39.05144882202148 0.00380706787109375 39.04679107666016 C 0.0037841796875 39.04549407958984 0.00379180908203125 39.04564666748047 0.0037689208984375 39.04435348510742 C 0.003692626953125 39.03887176513672 0.0036163330078125 39.03340148925781 0.00354766845703125 39.02792358398438 C 0.003509521484375 39.02533340454102 0.00350189208984375 39.02441024780273 0.0034637451171875 39.02182388305664 C 0.00341796875 39.01826095581055 0.0033721923828125 39.01475143432617 0.003326416015625 39.01118850708008 C 0.0033111572265625 39.00989532470703 0.003265380859375 39.00643157958984 0.0032501220703125 39.00513458251953 C 0.003204345703125 39.00157165527344 0.00315093994140625 38.99783325195313 0.00310516357421875 38.99427032470703 C 0.00307464599609375 38.99168395996094 0.00305938720703125 38.99038696289063 0.00302886962890625 38.98780059814453 C 0.00298309326171875 38.98441696166992 0.0029449462890625 38.98103332519531 0.00290679931640625 38.97765350341797 C 0.00286865234375 38.97506332397461 0.0028533935546875 38.97370147705078 0.0028228759765625 38.97111129760742 C 0.00278472900390625 38.96773147583008 0.00273895263671875 38.96416854858398 0.0027008056640625 38.96078491210938 C 0.0026702880859375 38.95819854736328 0.002655029296875 38.95689392089844 0.00262451171875 38.95430374145508 C 0.00258636474609375 38.95064926147461 0.00254058837890625 38.94694137573242 0.00250244140625 38.94328689575195 C 0.0024871826171875 38.94199371337891 0.0024566650390625 38.93909454345703 0.00244140625 38.93779754638672 C 0.0023956298828125 38.93414306640625 0.00235748291015625 38.93057632446289 0.0023193359375 38.92691802978516 C 0.002288818359375 38.92433166503906 0.0022735595703125 38.92308807373047 0.00225067138671875 38.92049789428711 C 0.00212860107421875 38.90953063964844 0.00202178955078125 38.89863967895508 0.00191497802734375 38.88766860961914 C 0.00188446044921875 38.88507843017578 0.00188446044921875 38.88518905639648 0.001861572265625 38.88259887695313 C 0.00182342529296875 38.87866592407227 0.0017852783203125 38.87453079223633 0.00174713134765625 38.87060165405273 C 0.00173187255859375 38.86930465698242 0.001708984375 38.86642456054688 0.0016937255859375 38.86513137817383 C 0.0016632080078125 38.86156463623047 0.0016326904296875 38.85799789428711 0.0016021728515625 38.85443115234375 C 0.0015716552734375 38.85184097290039 0.001556396484375 38.84983444213867 0.00153350830078125 38.84724426269531 C 0.0015106201171875 38.84413528442383 0.0014801025390625 38.84093856811523 0.0014495849609375 38.83782958984375 C 0.00142669677734375 38.83523941040039 0.00141143798828125 38.83298110961914 0.0013885498046875 38.83039093017578 C 0.00136566162109375 38.82737350463867 0.00133514404296875 38.82437896728516 0.001312255859375 38.82135772705078 C 0.00128936767578125 38.81876754760742 0.00127410888671875 38.8163948059082 0.001251220703125 38.81380462646484 C 0.00122833251953125 38.81051254272461 0.0012054443359375 38.80735397338867 0.0011749267578125 38.80406188964844 C 0.00115966796875 38.80146789550781 0.0011444091796875 38.79963684082031 0.00112152099609375 38.79704666137695 C 0.0010986328125 38.79411697387695 0.0010833740234375 38.79130172729492 0.00106048583984375 38.78837585449219 C 0.00103759765625 38.78578567504883 0.00101470947265625 38.78273391723633 0.00099945068359375 38.78014373779297 C 0.0009613037109375 38.77483749389648 0.00092315673828125 38.76947402954102 0.000885009765625 38.76416778564453 C 0.00087738037109375 38.76287078857422 0.0008697509765625 38.7613525390625 0.00086212158203125 38.76005554199219 C 0.00083160400390625 38.7558479309082 0.0008087158203125 38.75167083740234 0.0007781982421875 38.74746322631836 C 0.000762939453125 38.74486923217773 0.00075531005859375 38.74364852905273 0.00074005126953125 38.74105453491211 C 0.0007171630859375 38.7376708984375 0.000701904296875 38.73437118530273 0.00067901611328125 38.73098373413086 C 0.00066375732421875 38.7283935546875 0.00064849853515625 38.7263069152832 0.000640869140625 38.72371292114258 C 0.00061798095703125 38.7206916809082 0.00060272216796875 38.7175178527832 0.00058746337890625 38.71449661254883 C 0.00057220458984375 38.71190643310547 0.00055694580078125 38.7092170715332 0.00054168701171875 38.70662307739258 C 0.00052642822265625 38.70360565185547 0.00051116943359375 38.70052337646484 0.00049591064453125 38.69750213623047 C 0.00048065185546875 38.69491195678711 0.0004730224609375 38.69313049316406 0.00046539306640625 38.69053649902344 C 0.0004425048828125 38.68715286254883 0.00042724609375 38.68395233154297 0.0004119873046875 38.68056488037109 C 0.0004119873046875 38.67926788330078 0.00038909912109375 38.67470932006836 0.0003814697265625 38.67341613769531 C 0.0003662109375 38.67021179199219 0.00035858154296875 38.66692352294922 0.00034332275390625 38.66371917724609 C 0.00032806396484375 38.66112518310547 0.0003204345703125 38.65950393676758 0.00031280517578125 38.65690994262695 C 0.00029754638671875 38.65333938598633 0.00028228759765625 38.64978790283203 0.000274658203125 38.64621734619141 C 0.0002593994140625 38.64362335205078 0.0002593994140625 38.64211273193359 0.000244140625 38.63952255249023 C 0.0002288818359375 38.63420867919922 0.000213623046875 38.62887954711914 0.00019073486328125 38.62356567382813 C 0.00019073486328125 38.62226867675781 0.00019073486328125 38.6212272644043 0.00018310546875 38.61993026733398 C 0.0001678466796875 38.61571884155273 0.00016021728515625 38.61137008666992 0.00014495849609375 38.60715866088867 C 0.0001373291015625 38.60456466674805 0.0001373291015625 38.60350036621094 0.00012969970703125 38.60090637207031 C 0.0001220703125 38.59742736816406 0.00011444091796875 38.59377670288086 0.0001068115234375 38.59029769897461 C 9.918212890625e-05 38.5890007019043 9.1552734375e-05 38.58506011962891 9.1552734375e-05 38.58376312255859 C 8.392333984375e-05 38.58046340942383 7.62939453125e-05 38.5771598815918 6.866455078125e-05 38.5738639831543 C 6.866455078125e-05 38.57126998901367 6.103515625e-05 38.56928634643555 6.103515625e-05 38.56669235229492 C 5.340576171875e-05 38.56339645385742 4.57763671875e-05 38.5600700378418 3.814697265625e-05 38.5567741394043 C 3.814697265625e-05 38.55418014526367 3.814697265625e-05 38.55255126953125 3.0517578125e-05 38.54995727539063 C 3.0517578125e-05 38.54665756225586 2.288818359375e-05 38.54349136352539 2.288818359375e-05 38.54019165039063 C 2.288818359375e-05 38.53889465332031 1.52587890625e-05 38.53453826904297 1.52587890625e-05 38.53324127197266 C 1.52587890625e-05 38.52975845336914 7.62939453125e-06 38.52626037597656 7.62939453125e-06 38.52278137207031 C 7.62939453125e-06 38.52018356323242 7.62939453125e-06 38.51901245117188 0 38.51641845703125 C 0 38.51092147827148 0 38.50549697875977 0 38.5 C 0 17.23704528808594 17.23704528808594 0 38.5 0 Z" stroke="none" fill="#fff"/></g></g></svg>